<svg xmlns="http://www.w3.org/2000/svg" xmlns:xlink="http://www.w3.org/1999/xlink" width="500" zoomAndPan="magnify" viewBox="0 0 375 374.999991" height="500" preserveAspectRatio="xMidYMid meet" version="1.0"><defs><g/><clipPath id="d843e730fd"><path d="M 0 128.707031 L 88.5 128.707031 L 88.5 231.457031 L 0 231.457031 Z M 0 128.707031 " clip-rule="nonzero"/></clipPath><clipPath id="3422e964e0"><rect x="0" width="300" y="0" height="88"/></clipPath><clipPath id="324dc71122"><path d="M 362.589844 202.78125 L 371.925781 202.78125 L 371.925781 212.117188 L 362.589844 212.117188 Z M 362.589844 202.78125 " clip-rule="nonzero"/></clipPath><clipPath id="74410ca480"><path d="M 0.589844 0.78125 L 9.925781 0.78125 L 9.925781 10.117188 L 0.589844 10.117188 Z M 0.589844 0.78125 " clip-rule="nonzero"/></clipPath><clipPath id="7e9b6d9d2f"><rect x="0" width="10" y="0" height="11"/></clipPath><clipPath id="895fdb01a3"><rect x="0" width="179" y="0" height="21"/></clipPath></defs><g clip-path="url(#d843e730fd)"><path fill="#c82aef" d="M 41.886719 183.433594 L 18.496094 183.433594 L 18.496094 210.335938 L 0.214844 231.410156 L 0.015625 231.410156 L 0.015625 165.191406 L 18.496094 183.433594 L 18.496094 165.191406 L 57.734375 165.191406 Z M 88.308594 130.027344 L 73.378906 147.191406 L 0.015625 147.191406 L 0.015625 128.707031 L 88.308594 128.707031 Z M 88.308594 130.027344 " fill-opacity="1" fill-rule="nonzero"/></g><g transform="matrix(1, 0, 0, 1, 62, 139)"><g clip-path="url(#3422e964e0)"><g fill="#000000" fill-opacity="1"><g transform="translate(0.360435, 65.061)"><g><path d="M 47.640625 -34.71875 C 51.898438 -34.71875 55.289062 -33.421875 57.8125 -30.828125 C 60.34375 -28.242188 61.609375 -24.65625 61.609375 -20.0625 L 61.609375 0 L 51.140625 0 L 51.140625 -18.65625 C 51.140625 -20.863281 50.554688 -22.570312 49.390625 -23.78125 C 48.222656 -25 46.613281 -25.609375 44.5625 -25.609375 C 42.507812 -25.609375 40.894531 -25 39.71875 -23.78125 C 38.550781 -22.570312 37.96875 -20.863281 37.96875 -18.65625 L 37.96875 0 L 27.515625 0 L 27.515625 -18.65625 C 27.515625 -20.863281 26.925781 -22.570312 25.75 -23.78125 C 24.582031 -25 22.972656 -25.609375 20.921875 -25.609375 C 18.867188 -25.609375 17.257812 -25 16.09375 -23.78125 C 14.925781 -22.570312 14.34375 -20.863281 14.34375 -18.65625 L 14.34375 0 L 3.8125 0 L 3.8125 -34.34375 L 14.34375 -34.34375 L 14.34375 -30.03125 C 15.40625 -31.46875 16.796875 -32.609375 18.515625 -33.453125 C 20.242188 -34.296875 22.195312 -34.71875 24.375 -34.71875 C 26.957031 -34.71875 29.265625 -34.160156 31.296875 -33.046875 C 33.328125 -31.941406 34.914062 -30.363281 36.0625 -28.3125 C 37.25 -30.195312 38.867188 -31.734375 40.921875 -32.921875 C 42.972656 -34.117188 45.210938 -34.71875 47.640625 -34.71875 Z M 47.640625 -34.71875 "/></g></g></g><g fill="#000000" fill-opacity="1"><g transform="translate(61.344126, 65.061)"><g><path d="M 1.71875 -17.234375 C 1.71875 -20.765625 2.382812 -23.863281 3.71875 -26.53125 C 5.050781 -29.195312 6.863281 -31.242188 9.15625 -32.671875 C 11.457031 -34.109375 14.023438 -34.828125 16.859375 -34.828125 C 19.285156 -34.828125 21.410156 -34.332031 23.234375 -33.34375 C 25.054688 -32.363281 26.460938 -31.078125 27.453125 -29.484375 L 27.453125 -34.34375 L 37.96875 -34.34375 L 37.96875 0 L 27.453125 0 L 27.453125 -4.859375 C 26.421875 -3.265625 24.992188 -1.972656 23.171875 -0.984375 C 21.347656 0.00390625 19.222656 0.5 16.796875 0.5 C 14.003906 0.5 11.457031 -0.226562 9.15625 -1.6875 C 6.863281 -3.144531 5.050781 -5.21875 3.71875 -7.90625 C 2.382812 -10.59375 1.71875 -13.703125 1.71875 -17.234375 Z M 27.453125 -17.171875 C 27.453125 -19.796875 26.722656 -21.867188 25.265625 -23.390625 C 23.804688 -24.910156 22.03125 -25.671875 19.9375 -25.671875 C 17.84375 -25.671875 16.066406 -24.921875 14.609375 -23.421875 C 13.160156 -21.921875 12.4375 -19.859375 12.4375 -17.234375 C 12.4375 -14.609375 13.160156 -12.523438 14.609375 -10.984375 C 16.066406 -9.441406 17.84375 -8.671875 19.9375 -8.671875 C 22.03125 -8.671875 23.804688 -9.429688 25.265625 -10.953125 C 26.722656 -12.472656 27.453125 -14.546875 27.453125 -17.171875 Z M 27.453125 -17.171875 "/></g></g></g><g fill="#000000" fill-opacity="1"><g transform="translate(98.943403, 65.061)"><g><path d="M 14.34375 -28.625 C 15.570312 -30.507812 17.109375 -31.992188 18.953125 -33.078125 C 20.796875 -34.171875 22.847656 -34.71875 25.109375 -34.71875 L 25.109375 -23.578125 L 22.21875 -23.578125 C 19.59375 -23.578125 17.625 -23.007812 16.3125 -21.875 C 15 -20.75 14.34375 -18.769531 14.34375 -15.9375 L 14.34375 0 L 3.8125 0 L 3.8125 -34.34375 L 14.34375 -34.34375 Z M 14.34375 -28.625 "/></g></g></g><g fill="#000000" fill-opacity="1"><g transform="translate(121.096648, 65.061)"><g><path d="M 24.796875 0 L 14.34375 -14.40625 L 14.34375 0 L 3.8125 0 L 3.8125 -45.546875 L 14.34375 -45.546875 L 14.34375 -20.375 L 24.734375 -34.34375 L 37.734375 -34.34375 L 23.453125 -17.109375 L 37.84375 0 Z M 24.796875 0 "/></g></g></g><g fill="#000000" fill-opacity="1"><g transform="translate(154.942108, 65.061)"><g><path d="M 36.1875 -17.71875 C 36.1875 -16.738281 36.125 -15.710938 36 -14.640625 L 12.1875 -14.640625 C 12.351562 -12.515625 13.039062 -10.882812 14.25 -9.75 C 15.457031 -8.625 16.941406 -8.0625 18.703125 -8.0625 C 21.335938 -8.0625 23.164062 -9.171875 24.1875 -11.390625 L 35.390625 -11.390625 C 34.816406 -9.128906 33.78125 -7.09375 32.28125 -5.28125 C 30.78125 -3.476562 28.898438 -2.0625 26.640625 -1.03125 C 24.390625 -0.0078125 21.867188 0.5 19.078125 0.5 C 15.710938 0.5 12.71875 -0.21875 10.09375 -1.65625 C 7.46875 -3.09375 5.414062 -5.144531 3.9375 -7.8125 C 2.457031 -10.476562 1.71875 -13.597656 1.71875 -17.171875 C 1.71875 -20.742188 2.445312 -23.863281 3.90625 -26.53125 C 5.363281 -29.195312 7.40625 -31.242188 10.03125 -32.671875 C 12.65625 -34.109375 15.671875 -34.828125 19.078125 -34.828125 C 22.398438 -34.828125 25.351562 -34.128906 27.9375 -32.734375 C 30.519531 -31.347656 32.539062 -29.359375 34 -26.765625 C 35.457031 -24.179688 36.1875 -21.164062 36.1875 -17.71875 Z M 25.421875 -20.5 C 25.421875 -22.300781 24.800781 -23.734375 23.5625 -24.796875 C 22.332031 -25.867188 20.796875 -26.40625 18.953125 -26.40625 C 17.191406 -26.40625 15.703125 -25.890625 14.484375 -24.859375 C 13.273438 -23.835938 12.53125 -22.382812 12.25 -20.5 Z M 25.421875 -20.5 "/></g></g></g><g fill="#000000" fill-opacity="1"><g transform="translate(188.664499, 65.061)"><g><path d="M 22.953125 -8.921875 L 22.953125 0 L 17.609375 0 C 13.785156 0 10.804688 -0.929688 8.671875 -2.796875 C 6.546875 -4.660156 5.484375 -7.707031 5.484375 -11.9375 L 5.484375 -25.609375 L 1.296875 -25.609375 L 1.296875 -34.34375 L 5.484375 -34.34375 L 5.484375 -42.71875 L 16 -42.71875 L 16 -34.34375 L 22.890625 -34.34375 L 22.890625 -25.609375 L 16 -25.609375 L 16 -11.8125 C 16 -10.789062 16.242188 -10.050781 16.734375 -9.59375 C 17.234375 -9.144531 18.054688 -8.921875 19.203125 -8.921875 Z M 22.953125 -8.921875 "/></g></g></g><g fill="#000000" fill-opacity="1"><g transform="translate(209.463912, 65.061)"><g><path d="M 9.109375 -37.90625 C 7.265625 -37.90625 5.753906 -38.445312 4.578125 -39.53125 C 3.410156 -40.625 2.828125 -41.972656 2.828125 -43.578125 C 2.828125 -45.210938 3.410156 -46.570312 4.578125 -47.65625 C 5.753906 -48.75 7.265625 -49.296875 9.109375 -49.296875 C 10.910156 -49.296875 12.394531 -48.75 13.5625 -47.65625 C 14.738281 -46.570312 15.328125 -45.210938 15.328125 -43.578125 C 15.328125 -41.972656 14.738281 -40.625 13.5625 -39.53125 C 12.394531 -38.445312 10.910156 -37.90625 9.109375 -37.90625 Z M 14.34375 -34.34375 L 14.34375 0 L 3.8125 0 L 3.8125 -34.34375 Z M 14.34375 -34.34375 "/></g></g></g><g fill="#000000" fill-opacity="1"><g transform="translate(223.432617, 65.061)"><g><path d="M 24.734375 -34.71875 C 28.753906 -34.71875 31.960938 -33.410156 34.359375 -30.796875 C 36.765625 -28.191406 37.96875 -24.613281 37.96875 -20.0625 L 37.96875 0 L 27.515625 0 L 27.515625 -18.65625 C 27.515625 -20.945312 26.914062 -22.726562 25.71875 -24 C 24.53125 -25.269531 22.929688 -25.90625 20.921875 -25.90625 C 18.910156 -25.90625 17.3125 -25.269531 16.125 -24 C 14.9375 -22.726562 14.34375 -20.945312 14.34375 -18.65625 L 14.34375 0 L 3.8125 0 L 3.8125 -34.34375 L 14.34375 -34.34375 L 14.34375 -29.78125 C 15.40625 -31.300781 16.835938 -32.503906 18.640625 -33.390625 C 20.453125 -34.273438 22.484375 -34.71875 24.734375 -34.71875 Z M 24.734375 -34.71875 "/></g></g></g><g fill="#000000" fill-opacity="1"><g transform="translate(260.724195, 65.061)"><g><path d="M 16.859375 -34.828125 C 19.285156 -34.828125 21.410156 -34.332031 23.234375 -33.34375 C 25.054688 -32.363281 26.460938 -31.078125 27.453125 -29.484375 L 27.453125 -34.34375 L 37.96875 -34.34375 L 37.96875 -0.0625 C 37.96875 3.09375 37.34375 5.953125 36.09375 8.515625 C 34.84375 11.085938 32.9375 13.128906 30.375 14.640625 C 27.8125 16.160156 24.617188 16.921875 20.796875 16.921875 C 15.710938 16.921875 11.585938 15.71875 8.421875 13.3125 C 5.265625 10.914062 3.460938 7.664062 3.015625 3.5625 L 13.421875 3.5625 C 13.742188 4.882812 14.519531 5.921875 15.75 6.671875 C 16.988281 7.429688 18.507812 7.8125 20.3125 7.8125 C 22.488281 7.8125 24.222656 7.1875 25.515625 5.9375 C 26.804688 4.6875 27.453125 2.6875 27.453125 -0.0625 L 27.453125 -4.921875 C 26.421875 -3.316406 25.003906 -2.007812 23.203125 -1 C 21.398438 0 19.285156 0.5 16.859375 0.5 C 14.023438 0.5 11.457031 -0.226562 9.15625 -1.6875 C 6.863281 -3.144531 5.050781 -5.21875 3.71875 -7.90625 C 2.382812 -10.59375 1.71875 -13.703125 1.71875 -17.234375 C 1.71875 -20.765625 2.382812 -23.863281 3.71875 -26.53125 C 5.050781 -29.195312 6.863281 -31.242188 9.15625 -32.671875 C 11.457031 -34.109375 14.023438 -34.828125 16.859375 -34.828125 Z M 27.453125 -17.171875 C 27.453125 -19.796875 26.722656 -21.867188 25.265625 -23.390625 C 23.804688 -24.910156 22.03125 -25.671875 19.9375 -25.671875 C 17.84375 -25.671875 16.066406 -24.921875 14.609375 -23.421875 C 13.160156 -21.921875 12.4375 -19.859375 12.4375 -17.234375 C 12.4375 -14.609375 13.160156 -12.523438 14.609375 -10.984375 C 16.066406 -9.441406 17.84375 -8.671875 19.9375 -8.671875 C 22.03125 -8.671875 23.804688 -9.429688 25.265625 -10.953125 C 26.722656 -12.472656 27.453125 -14.546875 27.453125 -17.171875 Z M 27.453125 -17.171875 "/></g></g></g></g></g><g clip-path="url(#324dc71122)"><g transform="matrix(1, 0, 0, 1, 362, 202)"><g clip-path="url(#7e9b6d9d2f)"><g clip-path="url(#74410ca480)"><path fill="#000000" d="M 0.589844 0.78125 L 9.925781 0.78125 L 9.925781 10.117188 L 0.589844 10.117188 Z M 0.589844 0.78125 " fill-opacity="1" fill-rule="nonzero"/></g></g></g></g><g transform="matrix(1, 0, 0, 1, 67, 209)"><g clip-path="url(#895fdb01a3)"><g fill="#000000" fill-opacity="1"><g transform="translate(0.926614, 15.553539)"><g><path d="M 0.609375 -3.921875 C 0.609375 -4.710938 0.769531 -5.410156 1.09375 -6.015625 C 1.414062 -6.617188 1.859375 -7.082031 2.421875 -7.40625 C 2.984375 -7.738281 3.613281 -7.90625 4.3125 -7.90625 C 4.925781 -7.90625 5.492188 -7.765625 6.015625 -7.484375 C 6.535156 -7.210938 6.929688 -6.847656 7.203125 -6.390625 L 7.203125 -10.515625 L 8.5 -10.515625 L 8.5 0 L 7.203125 0 L 7.203125 -1.46875 C 6.941406 -1 6.5625 -0.613281 6.0625 -0.3125 C 5.5625 -0.0195312 4.972656 0.125 4.296875 0.125 C 3.609375 0.125 2.984375 -0.0390625 2.421875 -0.375 C 1.859375 -0.71875 1.414062 -1.195312 1.09375 -1.8125 C 0.769531 -2.425781 0.609375 -3.128906 0.609375 -3.921875 Z M 7.203125 -3.90625 C 7.203125 -4.488281 7.082031 -5 6.84375 -5.4375 C 6.601562 -5.875 6.28125 -6.207031 5.875 -6.4375 C 5.476562 -6.675781 5.039062 -6.796875 4.5625 -6.796875 C 4.070312 -6.796875 3.628906 -6.679688 3.234375 -6.453125 C 2.835938 -6.222656 2.519531 -5.890625 2.28125 -5.453125 C 2.050781 -5.015625 1.9375 -4.503906 1.9375 -3.921875 C 1.9375 -3.328125 2.050781 -2.804688 2.28125 -2.359375 C 2.519531 -1.921875 2.835938 -1.585938 3.234375 -1.359375 C 3.628906 -1.128906 4.070312 -1.015625 4.5625 -1.015625 C 5.039062 -1.015625 5.476562 -1.128906 5.875 -1.359375 C 6.28125 -1.585938 6.601562 -1.921875 6.84375 -2.359375 C 7.082031 -2.804688 7.203125 -3.320312 7.203125 -3.90625 Z M 7.203125 -3.90625 "/></g></g></g><g fill="#000000" fill-opacity="1"><g transform="translate(10.430474, 15.553539)"><g><path d="M 1.765625 -9.046875 C 1.515625 -9.046875 1.300781 -9.128906 1.125 -9.296875 C 0.957031 -9.472656 0.875 -9.679688 0.875 -9.921875 C 0.875 -10.171875 0.957031 -10.378906 1.125 -10.546875 C 1.300781 -10.722656 1.515625 -10.8125 1.765625 -10.8125 C 1.992188 -10.8125 2.191406 -10.722656 2.359375 -10.546875 C 2.523438 -10.378906 2.609375 -10.171875 2.609375 -9.921875 C 2.609375 -9.679688 2.523438 -9.472656 2.359375 -9.296875 C 2.191406 -9.128906 1.992188 -9.046875 1.765625 -9.046875 Z M 2.390625 -7.78125 L 2.390625 0 L 1.09375 0 L 1.09375 -7.78125 Z M 2.390625 -7.78125 "/></g></g></g><g fill="#000000" fill-opacity="1"><g transform="translate(13.8257, 15.553539)"><g><path d="M 4.296875 -7.90625 C 4.972656 -7.90625 5.5625 -7.757812 6.0625 -7.46875 C 6.570312 -7.175781 6.953125 -6.804688 7.203125 -6.359375 L 7.203125 -7.78125 L 8.5 -7.78125 L 8.5 0.171875 C 8.5 0.878906 8.347656 1.507812 8.046875 2.0625 C 7.742188 2.613281 7.3125 3.046875 6.75 3.359375 C 6.1875 3.671875 5.53125 3.828125 4.78125 3.828125 C 3.757812 3.828125 2.90625 3.585938 2.21875 3.109375 C 1.539062 2.628906 1.140625 1.972656 1.015625 1.140625 L 2.296875 1.140625 C 2.441406 1.609375 2.734375 1.988281 3.171875 2.28125 C 3.617188 2.570312 4.15625 2.71875 4.78125 2.71875 C 5.5 2.71875 6.082031 2.492188 6.53125 2.046875 C 6.976562 1.597656 7.203125 0.972656 7.203125 0.171875 L 7.203125 -1.46875 C 6.941406 -1.007812 6.5625 -0.628906 6.0625 -0.328125 C 5.5625 -0.0234375 4.972656 0.125 4.296875 0.125 C 3.609375 0.125 2.984375 -0.0390625 2.421875 -0.375 C 1.859375 -0.71875 1.414062 -1.195312 1.09375 -1.8125 C 0.769531 -2.425781 0.609375 -3.128906 0.609375 -3.921875 C 0.609375 -4.710938 0.769531 -5.410156 1.09375 -6.015625 C 1.414062 -6.617188 1.859375 -7.082031 2.421875 -7.40625 C 2.984375 -7.738281 3.609375 -7.90625 4.296875 -7.90625 Z M 7.203125 -3.90625 C 7.203125 -4.488281 7.082031 -5 6.84375 -5.4375 C 6.601562 -5.875 6.28125 -6.207031 5.875 -6.4375 C 5.476562 -6.675781 5.039062 -6.796875 4.5625 -6.796875 C 4.070312 -6.796875 3.628906 -6.679688 3.234375 -6.453125 C 2.835938 -6.222656 2.519531 -5.890625 2.28125 -5.453125 C 2.050781 -5.015625 1.9375 -4.503906 1.9375 -3.921875 C 1.9375 -3.328125 2.050781 -2.804688 2.28125 -2.359375 C 2.519531 -1.921875 2.835938 -1.585938 3.234375 -1.359375 C 3.628906 -1.128906 4.070312 -1.015625 4.5625 -1.015625 C 5.039062 -1.015625 5.476562 -1.128906 5.875 -1.359375 C 6.28125 -1.585938 6.601562 -1.921875 6.84375 -2.359375 C 7.082031 -2.804688 7.203125 -3.320312 7.203125 -3.90625 Z M 7.203125 -3.90625 "/></g></g></g><g fill="#000000" fill-opacity="1"><g transform="translate(23.32956, 15.553539)"><g><path d="M 1.765625 -9.046875 C 1.515625 -9.046875 1.300781 -9.128906 1.125 -9.296875 C 0.957031 -9.472656 0.875 -9.679688 0.875 -9.921875 C 0.875 -10.171875 0.957031 -10.378906 1.125 -10.546875 C 1.300781 -10.722656 1.515625 -10.8125 1.765625 -10.8125 C 1.992188 -10.8125 2.191406 -10.722656 2.359375 -10.546875 C 2.523438 -10.378906 2.609375 -10.171875 2.609375 -9.921875 C 2.609375 -9.679688 2.523438 -9.472656 2.359375 -9.296875 C 2.191406 -9.128906 1.992188 -9.046875 1.765625 -9.046875 Z M 2.390625 -7.78125 L 2.390625 0 L 1.09375 0 L 1.09375 -7.78125 Z M 2.390625 -7.78125 "/></g></g></g><g fill="#000000" fill-opacity="1"><g transform="translate(26.724787, 15.553539)"><g><path d="M 2.671875 -6.71875 L 2.671875 -2.125 C 2.671875 -1.75 2.75 -1.484375 2.90625 -1.328125 C 3.070312 -1.171875 3.351562 -1.09375 3.75 -1.09375 L 4.703125 -1.09375 L 4.703125 0 L 3.53125 0 C 2.8125 0 2.269531 -0.164062 1.90625 -0.5 C 1.550781 -0.832031 1.375 -1.375 1.375 -2.125 L 1.375 -6.71875 L 0.375 -6.71875 L 0.375 -7.78125 L 1.375 -7.78125 L 1.375 -9.75 L 2.671875 -9.75 L 2.671875 -7.78125 L 4.703125 -7.78125 L 4.703125 -6.71875 Z M 2.671875 -6.71875 "/></g></g></g><g fill="#000000" fill-opacity="1"><g transform="translate(31.796345, 15.553539)"><g><path d="M 0.609375 -3.921875 C 0.609375 -4.710938 0.769531 -5.410156 1.09375 -6.015625 C 1.414062 -6.617188 1.859375 -7.082031 2.421875 -7.40625 C 2.984375 -7.738281 3.609375 -7.90625 4.296875 -7.90625 C 4.984375 -7.90625 5.578125 -7.757812 6.078125 -7.46875 C 6.578125 -7.175781 6.953125 -6.804688 7.203125 -6.359375 L 7.203125 -7.78125 L 8.5 -7.78125 L 8.5 0 L 7.203125 0 L 7.203125 -1.453125 C 6.941406 -0.992188 6.554688 -0.613281 6.046875 -0.3125 C 5.546875 -0.0195312 4.960938 0.125 4.296875 0.125 C 3.597656 0.125 2.96875 -0.0390625 2.40625 -0.375 C 1.851562 -0.71875 1.414062 -1.195312 1.09375 -1.8125 C 0.769531 -2.425781 0.609375 -3.128906 0.609375 -3.921875 Z M 7.203125 -3.90625 C 7.203125 -4.488281 7.082031 -5 6.84375 -5.4375 C 6.601562 -5.875 6.28125 -6.207031 5.875 -6.4375 C 5.476562 -6.675781 5.039062 -6.796875 4.5625 -6.796875 C 4.070312 -6.796875 3.628906 -6.679688 3.234375 -6.453125 C 2.835938 -6.222656 2.519531 -5.890625 2.28125 -5.453125 C 2.050781 -5.015625 1.9375 -4.503906 1.9375 -3.921875 C 1.9375 -3.328125 2.050781 -2.804688 2.28125 -2.359375 C 2.519531 -1.921875 2.835938 -1.585938 3.234375 -1.359375 C 3.628906 -1.128906 4.070312 -1.015625 4.5625 -1.015625 C 5.039062 -1.015625 5.476562 -1.128906 5.875 -1.359375 C 6.28125 -1.585938 6.601562 -1.921875 6.84375 -2.359375 C 7.082031 -2.804688 7.203125 -3.320312 7.203125 -3.90625 Z M 7.203125 -3.90625 "/></g></g></g><g fill="#000000" fill-opacity="1"><g transform="translate(41.300205, 15.553539)"><g><path d="M 2.390625 -10.515625 L 2.390625 0 L 1.09375 0 L 1.09375 -10.515625 Z M 2.390625 -10.515625 "/></g></g></g><g fill="#000000" fill-opacity="1"><g transform="translate(44.695432, 15.553539)"><g/></g></g><g fill="#000000" fill-opacity="1"><g transform="translate(48.388989, 15.553539)"><g><path d="M 10.453125 -7.921875 C 11.054688 -7.921875 11.59375 -7.796875 12.0625 -7.546875 C 12.539062 -7.296875 12.914062 -6.921875 13.1875 -6.421875 C 13.46875 -5.921875 13.609375 -5.3125 13.609375 -4.59375 L 13.609375 0 L 12.328125 0 L 12.328125 -4.40625 C 12.328125 -5.175781 12.132812 -5.765625 11.75 -6.171875 C 11.363281 -6.585938 10.847656 -6.796875 10.203125 -6.796875 C 9.523438 -6.796875 8.988281 -6.582031 8.59375 -6.15625 C 8.195312 -5.726562 8 -5.109375 8 -4.296875 L 8 0 L 6.71875 0 L 6.71875 -4.40625 C 6.71875 -5.175781 6.523438 -5.765625 6.140625 -6.171875 C 5.753906 -6.585938 5.238281 -6.796875 4.59375 -6.796875 C 3.914062 -6.796875 3.378906 -6.582031 2.984375 -6.15625 C 2.585938 -5.726562 2.390625 -5.109375 2.390625 -4.296875 L 2.390625 0 L 1.09375 0 L 1.09375 -7.78125 L 2.390625 -7.78125 L 2.390625 -6.65625 C 2.640625 -7.0625 2.976562 -7.375 3.40625 -7.59375 C 3.84375 -7.8125 4.320312 -7.921875 4.84375 -7.921875 C 5.5 -7.921875 6.078125 -7.773438 6.578125 -7.484375 C 7.078125 -7.191406 7.453125 -6.757812 7.703125 -6.1875 C 7.921875 -6.738281 8.28125 -7.164062 8.78125 -7.46875 C 9.28125 -7.769531 9.835938 -7.921875 10.453125 -7.921875 Z M 10.453125 -7.921875 "/></g></g></g><g fill="#000000" fill-opacity="1"><g transform="translate(62.921812, 15.553539)"><g><path d="M 0.609375 -3.921875 C 0.609375 -4.710938 0.769531 -5.410156 1.09375 -6.015625 C 1.414062 -6.617188 1.859375 -7.082031 2.421875 -7.40625 C 2.984375 -7.738281 3.609375 -7.90625 4.296875 -7.90625 C 4.984375 -7.90625 5.578125 -7.757812 6.078125 -7.46875 C 6.578125 -7.175781 6.953125 -6.804688 7.203125 -6.359375 L 7.203125 -7.78125 L 8.5 -7.78125 L 8.5 0 L 7.203125 0 L 7.203125 -1.453125 C 6.941406 -0.992188 6.554688 -0.613281 6.046875 -0.3125 C 5.546875 -0.0195312 4.960938 0.125 4.296875 0.125 C 3.597656 0.125 2.96875 -0.0390625 2.40625 -0.375 C 1.851562 -0.71875 1.414062 -1.195312 1.09375 -1.8125 C 0.769531 -2.425781 0.609375 -3.128906 0.609375 -3.921875 Z M 7.203125 -3.90625 C 7.203125 -4.488281 7.082031 -5 6.84375 -5.4375 C 6.601562 -5.875 6.28125 -6.207031 5.875 -6.4375 C 5.476562 -6.675781 5.039062 -6.796875 4.5625 -6.796875 C 4.070312 -6.796875 3.628906 -6.679688 3.234375 -6.453125 C 2.835938 -6.222656 2.519531 -5.890625 2.28125 -5.453125 C 2.050781 -5.015625 1.9375 -4.503906 1.9375 -3.921875 C 1.9375 -3.328125 2.050781 -2.804688 2.28125 -2.359375 C 2.519531 -1.921875 2.835938 -1.585938 3.234375 -1.359375 C 3.628906 -1.128906 4.070312 -1.015625 4.5625 -1.015625 C 5.039062 -1.015625 5.476562 -1.128906 5.875 -1.359375 C 6.28125 -1.585938 6.601562 -1.921875 6.84375 -2.359375 C 7.082031 -2.804688 7.203125 -3.320312 7.203125 -3.90625 Z M 7.203125 -3.90625 "/></g></g></g><g fill="#000000" fill-opacity="1"><g transform="translate(72.425672, 15.553539)"><g><path d="M 2.390625 -6.515625 C 2.617188 -6.960938 2.941406 -7.304688 3.359375 -7.546875 C 3.773438 -7.796875 4.289062 -7.921875 4.90625 -7.921875 L 4.90625 -6.59375 L 4.5625 -6.59375 C 3.113281 -6.59375 2.390625 -5.804688 2.390625 -4.234375 L 2.390625 0 L 1.09375 0 L 1.09375 -7.78125 L 2.390625 -7.78125 Z M 2.390625 -6.515625 "/></g></g></g><g fill="#000000" fill-opacity="1"><g transform="translate(77.625082, 15.553539)"><g><path d="M 5.4375 0 L 2.390625 -3.4375 L 2.390625 0 L 1.09375 0 L 1.09375 -10.515625 L 2.390625 -10.515625 L 2.390625 -4.328125 L 5.390625 -7.78125 L 7.1875 -7.78125 L 3.515625 -3.90625 L 7.203125 0 Z M 5.4375 0 "/></g></g></g><g fill="#000000" fill-opacity="1"><g transform="translate(84.84175, 15.553539)"><g><path d="M 8.1875 -4.1875 C 8.1875 -3.945312 8.175781 -3.6875 8.15625 -3.40625 L 1.9375 -3.40625 C 1.976562 -2.644531 2.238281 -2.046875 2.71875 -1.609375 C 3.195312 -1.179688 3.773438 -0.96875 4.453125 -0.96875 C 5.015625 -0.96875 5.484375 -1.097656 5.859375 -1.359375 C 6.234375 -1.617188 6.492188 -1.96875 6.640625 -2.40625 L 8.03125 -2.40625 C 7.820312 -1.65625 7.40625 -1.046875 6.78125 -0.578125 C 6.164062 -0.109375 5.390625 0.125 4.453125 0.125 C 3.722656 0.125 3.066406 -0.0351562 2.484375 -0.359375 C 1.898438 -0.691406 1.441406 -1.164062 1.109375 -1.78125 C 0.773438 -2.394531 0.609375 -3.101562 0.609375 -3.90625 C 0.609375 -4.707031 0.769531 -5.410156 1.09375 -6.015625 C 1.414062 -6.628906 1.867188 -7.097656 2.453125 -7.421875 C 3.035156 -7.742188 3.703125 -7.90625 4.453125 -7.90625 C 5.191406 -7.90625 5.84375 -7.742188 6.40625 -7.421875 C 6.976562 -7.097656 7.414062 -6.65625 7.71875 -6.09375 C 8.03125 -5.53125 8.1875 -4.894531 8.1875 -4.1875 Z M 6.859375 -4.453125 C 6.859375 -4.953125 6.75 -5.378906 6.53125 -5.734375 C 6.3125 -6.085938 6.015625 -6.351562 5.640625 -6.53125 C 5.265625 -6.71875 4.851562 -6.8125 4.40625 -6.8125 C 3.75 -6.8125 3.191406 -6.601562 2.734375 -6.1875 C 2.273438 -5.769531 2.015625 -5.191406 1.953125 -4.453125 Z M 6.859375 -4.453125 "/></g></g></g><g fill="#000000" fill-opacity="1"><g transform="translate(93.550072, 15.553539)"><g><path d="M 2.671875 -6.71875 L 2.671875 -2.125 C 2.671875 -1.75 2.75 -1.484375 2.90625 -1.328125 C 3.070312 -1.171875 3.351562 -1.09375 3.75 -1.09375 L 4.703125 -1.09375 L 4.703125 0 L 3.53125 0 C 2.8125 0 2.269531 -0.164062 1.90625 -0.5 C 1.550781 -0.832031 1.375 -1.375 1.375 -2.125 L 1.375 -6.71875 L 0.375 -6.71875 L 0.375 -7.78125 L 1.375 -7.78125 L 1.375 -9.75 L 2.671875 -9.75 L 2.671875 -7.78125 L 4.703125 -7.78125 L 4.703125 -6.71875 Z M 2.671875 -6.71875 "/></g></g></g><g fill="#000000" fill-opacity="1"><g transform="translate(98.62163, 15.553539)"><g><path d="M 1.765625 -9.046875 C 1.515625 -9.046875 1.300781 -9.128906 1.125 -9.296875 C 0.957031 -9.472656 0.875 -9.679688 0.875 -9.921875 C 0.875 -10.171875 0.957031 -10.378906 1.125 -10.546875 C 1.300781 -10.722656 1.515625 -10.8125 1.765625 -10.8125 C 1.992188 -10.8125 2.191406 -10.722656 2.359375 -10.546875 C 2.523438 -10.378906 2.609375 -10.171875 2.609375 -9.921875 C 2.609375 -9.679688 2.523438 -9.472656 2.359375 -9.296875 C 2.191406 -9.128906 1.992188 -9.046875 1.765625 -9.046875 Z M 2.390625 -7.78125 L 2.390625 0 L 1.09375 0 L 1.09375 -7.78125 Z M 2.390625 -7.78125 "/></g></g></g><g fill="#000000" fill-opacity="1"><g transform="translate(102.016857, 15.553539)"><g><path d="M 4.890625 -7.921875 C 5.835938 -7.921875 6.601562 -7.632812 7.1875 -7.0625 C 7.769531 -6.488281 8.0625 -5.664062 8.0625 -4.59375 L 8.0625 0 L 6.796875 0 L 6.796875 -4.40625 C 6.796875 -5.175781 6.597656 -5.765625 6.203125 -6.171875 C 5.816406 -6.585938 5.285156 -6.796875 4.609375 -6.796875 C 3.929688 -6.796875 3.390625 -6.582031 2.984375 -6.15625 C 2.585938 -5.738281 2.390625 -5.117188 2.390625 -4.296875 L 2.390625 0 L 1.09375 0 L 1.09375 -7.78125 L 2.390625 -7.78125 L 2.390625 -6.671875 C 2.640625 -7.066406 2.984375 -7.375 3.421875 -7.59375 C 3.867188 -7.8125 4.359375 -7.921875 4.890625 -7.921875 Z M 4.890625 -7.921875 "/></g></g></g><g fill="#000000" fill-opacity="1"><g transform="translate(111.009295, 15.553539)"><g><path d="M 4.296875 -7.90625 C 4.972656 -7.90625 5.5625 -7.757812 6.0625 -7.46875 C 6.570312 -7.175781 6.953125 -6.804688 7.203125 -6.359375 L 7.203125 -7.78125 L 8.5 -7.78125 L 8.5 0.171875 C 8.5 0.878906 8.347656 1.507812 8.046875 2.0625 C 7.742188 2.613281 7.3125 3.046875 6.75 3.359375 C 6.1875 3.671875 5.53125 3.828125 4.78125 3.828125 C 3.757812 3.828125 2.90625 3.585938 2.21875 3.109375 C 1.539062 2.628906 1.140625 1.972656 1.015625 1.140625 L 2.296875 1.140625 C 2.441406 1.609375 2.734375 1.988281 3.171875 2.28125 C 3.617188 2.570312 4.15625 2.71875 4.78125 2.71875 C 5.5 2.71875 6.082031 2.492188 6.53125 2.046875 C 6.976562 1.597656 7.203125 0.972656 7.203125 0.171875 L 7.203125 -1.46875 C 6.941406 -1.007812 6.5625 -0.628906 6.0625 -0.328125 C 5.5625 -0.0234375 4.972656 0.125 4.296875 0.125 C 3.609375 0.125 2.984375 -0.0390625 2.421875 -0.375 C 1.859375 -0.71875 1.414062 -1.195312 1.09375 -1.8125 C 0.769531 -2.425781 0.609375 -3.128906 0.609375 -3.921875 C 0.609375 -4.710938 0.769531 -5.410156 1.09375 -6.015625 C 1.414062 -6.617188 1.859375 -7.082031 2.421875 -7.40625 C 2.984375 -7.738281 3.609375 -7.90625 4.296875 -7.90625 Z M 7.203125 -3.90625 C 7.203125 -4.488281 7.082031 -5 6.84375 -5.4375 C 6.601562 -5.875 6.28125 -6.207031 5.875 -6.4375 C 5.476562 -6.675781 5.039062 -6.796875 4.5625 -6.796875 C 4.070312 -6.796875 3.628906 -6.679688 3.234375 -6.453125 C 2.835938 -6.222656 2.519531 -5.890625 2.28125 -5.453125 C 2.050781 -5.015625 1.9375 -4.503906 1.9375 -3.921875 C 1.9375 -3.328125 2.050781 -2.804688 2.28125 -2.359375 C 2.519531 -1.921875 2.835938 -1.585938 3.234375 -1.359375 C 3.628906 -1.128906 4.070312 -1.015625 4.5625 -1.015625 C 5.039062 -1.015625 5.476562 -1.128906 5.875 -1.359375 C 6.28125 -1.585938 6.601562 -1.921875 6.84375 -2.359375 C 7.082031 -2.804688 7.203125 -3.320312 7.203125 -3.90625 Z M 7.203125 -3.90625 "/></g></g></g><g fill="#000000" fill-opacity="1"><g transform="translate(120.513155, 15.553539)"><g/></g></g><g fill="#000000" fill-opacity="1"><g transform="translate(124.206712, 15.553539)"><g><path d="M 0.609375 -3.921875 C 0.609375 -4.710938 0.769531 -5.410156 1.09375 -6.015625 C 1.414062 -6.617188 1.859375 -7.082031 2.421875 -7.40625 C 2.984375 -7.738281 3.609375 -7.90625 4.296875 -7.90625 C 4.984375 -7.90625 5.578125 -7.757812 6.078125 -7.46875 C 6.578125 -7.175781 6.953125 -6.804688 7.203125 -6.359375 L 7.203125 -7.78125 L 8.5 -7.78125 L 8.5 0 L 7.203125 0 L 7.203125 -1.453125 C 6.941406 -0.992188 6.554688 -0.613281 6.046875 -0.3125 C 5.546875 -0.0195312 4.960938 0.125 4.296875 0.125 C 3.597656 0.125 2.96875 -0.0390625 2.40625 -0.375 C 1.851562 -0.71875 1.414062 -1.195312 1.09375 -1.8125 C 0.769531 -2.425781 0.609375 -3.128906 0.609375 -3.921875 Z M 7.203125 -3.90625 C 7.203125 -4.488281 7.082031 -5 6.84375 -5.4375 C 6.601562 -5.875 6.28125 -6.207031 5.875 -6.4375 C 5.476562 -6.675781 5.039062 -6.796875 4.5625 -6.796875 C 4.070312 -6.796875 3.628906 -6.679688 3.234375 -6.453125 C 2.835938 -6.222656 2.519531 -5.890625 2.28125 -5.453125 C 2.050781 -5.015625 1.9375 -4.503906 1.9375 -3.921875 C 1.9375 -3.328125 2.050781 -2.804688 2.28125 -2.359375 C 2.519531 -1.921875 2.835938 -1.585938 3.234375 -1.359375 C 3.628906 -1.128906 4.070312 -1.015625 4.5625 -1.015625 C 5.039062 -1.015625 5.476562 -1.128906 5.875 -1.359375 C 6.28125 -1.585938 6.601562 -1.921875 6.84375 -2.359375 C 7.082031 -2.804688 7.203125 -3.320312 7.203125 -3.90625 Z M 7.203125 -3.90625 "/></g></g></g><g fill="#000000" fill-opacity="1"><g transform="translate(133.710572, 15.553539)"><g><path d="M 4.296875 -7.90625 C 4.972656 -7.90625 5.5625 -7.757812 6.0625 -7.46875 C 6.570312 -7.175781 6.953125 -6.804688 7.203125 -6.359375 L 7.203125 -7.78125 L 8.5 -7.78125 L 8.5 0.171875 C 8.5 0.878906 8.347656 1.507812 8.046875 2.0625 C 7.742188 2.613281 7.3125 3.046875 6.75 3.359375 C 6.1875 3.671875 5.53125 3.828125 4.78125 3.828125 C 3.757812 3.828125 2.90625 3.585938 2.21875 3.109375 C 1.539062 2.628906 1.140625 1.972656 1.015625 1.140625 L 2.296875 1.140625 C 2.441406 1.609375 2.734375 1.988281 3.171875 2.28125 C 3.617188 2.570312 4.15625 2.71875 4.78125 2.71875 C 5.5 2.71875 6.082031 2.492188 6.53125 2.046875 C 6.976562 1.597656 7.203125 0.972656 7.203125 0.171875 L 7.203125 -1.46875 C 6.941406 -1.007812 6.5625 -0.628906 6.0625 -0.328125 C 5.5625 -0.0234375 4.972656 0.125 4.296875 0.125 C 3.609375 0.125 2.984375 -0.0390625 2.421875 -0.375 C 1.859375 -0.71875 1.414062 -1.195312 1.09375 -1.8125 C 0.769531 -2.425781 0.609375 -3.128906 0.609375 -3.921875 C 0.609375 -4.710938 0.769531 -5.410156 1.09375 -6.015625 C 1.414062 -6.617188 1.859375 -7.082031 2.421875 -7.40625 C 2.984375 -7.738281 3.609375 -7.90625 4.296875 -7.90625 Z M 7.203125 -3.90625 C 7.203125 -4.488281 7.082031 -5 6.84375 -5.4375 C 6.601562 -5.875 6.28125 -6.207031 5.875 -6.4375 C 5.476562 -6.675781 5.039062 -6.796875 4.5625 -6.796875 C 4.070312 -6.796875 3.628906 -6.679688 3.234375 -6.453125 C 2.835938 -6.222656 2.519531 -5.890625 2.28125 -5.453125 C 2.050781 -5.015625 1.9375 -4.503906 1.9375 -3.921875 C 1.9375 -3.328125 2.050781 -2.804688 2.28125 -2.359375 C 2.519531 -1.921875 2.835938 -1.585938 3.234375 -1.359375 C 3.628906 -1.128906 4.070312 -1.015625 4.5625 -1.015625 C 5.039062 -1.015625 5.476562 -1.128906 5.875 -1.359375 C 6.28125 -1.585938 6.601562 -1.921875 6.84375 -2.359375 C 7.082031 -2.804688 7.203125 -3.320312 7.203125 -3.90625 Z M 7.203125 -3.90625 "/></g></g></g><g fill="#000000" fill-opacity="1"><g transform="translate(143.214432, 15.553539)"><g><path d="M 8.1875 -4.1875 C 8.1875 -3.945312 8.175781 -3.6875 8.15625 -3.40625 L 1.9375 -3.40625 C 1.976562 -2.644531 2.238281 -2.046875 2.71875 -1.609375 C 3.195312 -1.179688 3.773438 -0.96875 4.453125 -0.96875 C 5.015625 -0.96875 5.484375 -1.097656 5.859375 -1.359375 C 6.234375 -1.617188 6.492188 -1.96875 6.640625 -2.40625 L 8.03125 -2.40625 C 7.820312 -1.65625 7.40625 -1.046875 6.78125 -0.578125 C 6.164062 -0.109375 5.390625 0.125 4.453125 0.125 C 3.722656 0.125 3.066406 -0.0351562 2.484375 -0.359375 C 1.898438 -0.691406 1.441406 -1.164062 1.109375 -1.78125 C 0.773438 -2.394531 0.609375 -3.101562 0.609375 -3.90625 C 0.609375 -4.707031 0.769531 -5.410156 1.09375 -6.015625 C 1.414062 -6.628906 1.867188 -7.097656 2.453125 -7.421875 C 3.035156 -7.742188 3.703125 -7.90625 4.453125 -7.90625 C 5.191406 -7.90625 5.84375 -7.742188 6.40625 -7.421875 C 6.976562 -7.097656 7.414062 -6.65625 7.71875 -6.09375 C 8.03125 -5.53125 8.1875 -4.894531 8.1875 -4.1875 Z M 6.859375 -4.453125 C 6.859375 -4.953125 6.75 -5.378906 6.53125 -5.734375 C 6.3125 -6.085938 6.015625 -6.351562 5.640625 -6.53125 C 5.265625 -6.71875 4.851562 -6.8125 4.40625 -6.8125 C 3.75 -6.8125 3.191406 -6.601562 2.734375 -6.1875 C 2.273438 -5.769531 2.015625 -5.191406 1.953125 -4.453125 Z M 6.859375 -4.453125 "/></g></g></g><g fill="#000000" fill-opacity="1"><g transform="translate(151.922754, 15.553539)"><g><path d="M 4.890625 -7.921875 C 5.835938 -7.921875 6.601562 -7.632812 7.1875 -7.0625 C 7.769531 -6.488281 8.0625 -5.664062 8.0625 -4.59375 L 8.0625 0 L 6.796875 0 L 6.796875 -4.40625 C 6.796875 -5.175781 6.597656 -5.765625 6.203125 -6.171875 C 5.816406 -6.585938 5.285156 -6.796875 4.609375 -6.796875 C 3.929688 -6.796875 3.390625 -6.582031 2.984375 -6.15625 C 2.585938 -5.738281 2.390625 -5.117188 2.390625 -4.296875 L 2.390625 0 L 1.09375 0 L 1.09375 -7.78125 L 2.390625 -7.78125 L 2.390625 -6.671875 C 2.640625 -7.066406 2.984375 -7.375 3.421875 -7.59375 C 3.867188 -7.8125 4.359375 -7.921875 4.890625 -7.921875 Z M 4.890625 -7.921875 "/></g></g></g><g fill="#000000" fill-opacity="1"><g transform="translate(160.915192, 15.553539)"><g><path d="M 0.609375 -3.90625 C 0.609375 -4.707031 0.769531 -5.410156 1.09375 -6.015625 C 1.414062 -6.617188 1.863281 -7.082031 2.4375 -7.40625 C 3.007812 -7.738281 3.664062 -7.90625 4.40625 -7.90625 C 5.363281 -7.90625 6.148438 -7.671875 6.765625 -7.203125 C 7.390625 -6.742188 7.800781 -6.101562 8 -5.28125 L 6.609375 -5.28125 C 6.472656 -5.757812 6.210938 -6.132812 5.828125 -6.40625 C 5.441406 -6.675781 4.96875 -6.8125 4.40625 -6.8125 C 3.664062 -6.8125 3.066406 -6.554688 2.609375 -6.046875 C 2.160156 -5.546875 1.9375 -4.832031 1.9375 -3.90625 C 1.9375 -2.96875 2.160156 -2.242188 2.609375 -1.734375 C 3.066406 -1.222656 3.664062 -0.96875 4.40625 -0.96875 C 4.96875 -0.96875 5.4375 -1.097656 5.8125 -1.359375 C 6.195312 -1.628906 6.460938 -2.007812 6.609375 -2.5 L 8 -2.5 C 7.789062 -1.707031 7.375 -1.070312 6.75 -0.59375 C 6.125 -0.113281 5.34375 0.125 4.40625 0.125 C 3.664062 0.125 3.007812 -0.0351562 2.4375 -0.359375 C 1.863281 -0.691406 1.414062 -1.160156 1.09375 -1.765625 C 0.769531 -2.378906 0.609375 -3.09375 0.609375 -3.90625 Z M 0.609375 -3.90625 "/></g></g></g><g fill="#000000" fill-opacity="1"><g transform="translate(169.438836, 15.553539)"><g><path d="M 7.796875 -7.78125 L 3.109375 3.671875 L 1.78125 3.671875 L 3.3125 -0.078125 L 0.171875 -7.78125 L 1.609375 -7.78125 L 4.046875 -1.484375 L 6.46875 -7.78125 Z M 7.796875 -7.78125 "/></g></g></g></g></g></svg>