<svg xmlns="http://www.w3.org/2000/svg" xmlns:xlink="http://www.w3.org/1999/xlink" width="500" zoomAndPan="magnify" viewBox="0 0 375 374.999991" height="500" preserveAspectRatio="xMidYMid meet" version="1.0"><defs><g/><clipPath id="b4dc8f2fff"><path d="M 31.300781 136.144531 L 119.800781 136.144531 L 119.800781 238.894531 L 31.300781 238.894531 Z M 31.300781 136.144531 " clip-rule="nonzero"/></clipPath><clipPath id="a4d1112479"><path d="M 162.96875 187.316406 L 172.214844 187.316406 L 172.214844 196.65625 L 162.96875 196.65625 Z M 162.96875 187.316406 " clip-rule="nonzero"/></clipPath><clipPath id="4440f1e8eb"><path d="M 0.96875 0.316406 L 10.214844 0.316406 L 10.214844 9.65625 L 0.96875 9.65625 Z M 0.96875 0.316406 " clip-rule="nonzero"/></clipPath><clipPath id="8c0943ab36"><rect x="0" width="11" y="0" height="10"/></clipPath></defs><g clip-path="url(#b4dc8f2fff)"><path fill="#c82aef" d="M 73.1875 190.867188 L 49.796875 190.867188 L 49.796875 217.773438 L 31.515625 238.847656 L 31.316406 238.847656 L 31.316406 172.628906 L 49.796875 190.867188 L 49.796875 172.628906 L 89.03125 172.628906 Z M 119.609375 137.460938 L 104.679688 154.625 L 31.316406 154.625 L 31.316406 136.144531 L 119.609375 136.144531 Z M 119.609375 137.460938 " fill-opacity="1" fill-rule="nonzero"/></g><g fill="#ffffff" fill-opacity="1"><g transform="translate(90.559722, 211.500265)"><g><path d="M 36.640625 -38.734375 L 23.234375 -12.796875 L 23.234375 0 L 13.796875 0 L 13.796875 -12.796875 L 0.390625 -38.734375 L 11.09375 -38.734375 L 18.59375 -22.515625 L 26.046875 -38.734375 Z M 36.640625 -38.734375 "/></g></g></g><g fill="#ffffff" fill-opacity="1"><g transform="translate(123.834755, 211.500265)"><g><path d="M 1.546875 -15.453125 C 1.546875 -18.617188 2.140625 -21.394531 3.328125 -23.78125 C 4.523438 -26.175781 6.15625 -28.015625 8.21875 -29.296875 C 10.28125 -30.585938 12.582031 -31.234375 15.125 -31.234375 C 17.144531 -31.234375 18.988281 -30.8125 20.65625 -29.96875 C 22.332031 -29.125 23.648438 -27.984375 24.609375 -26.546875 L 24.609375 -40.84375 L 34.046875 -40.84375 L 34.046875 0 L 24.609375 0 L 24.609375 -4.421875 C 23.734375 -2.941406 22.472656 -1.757812 20.828125 -0.875 C 19.191406 0 17.289062 0.4375 15.125 0.4375 C 12.582031 0.4375 10.28125 -0.210938 8.21875 -1.515625 C 6.15625 -2.828125 4.523438 -4.6875 3.328125 -7.09375 C 2.140625 -9.5 1.546875 -12.285156 1.546875 -15.453125 Z M 24.609375 -15.390625 C 24.609375 -17.742188 23.953125 -19.601562 22.640625 -20.96875 C 21.335938 -22.332031 19.75 -23.015625 17.875 -23.015625 C 16 -23.015625 14.40625 -22.34375 13.09375 -21 C 11.789062 -19.65625 11.140625 -17.804688 11.140625 -15.453125 C 11.140625 -13.097656 11.789062 -11.226562 13.09375 -9.84375 C 14.40625 -8.46875 16 -7.78125 17.875 -7.78125 C 19.75 -7.78125 21.335938 -8.457031 22.640625 -9.8125 C 23.953125 -11.175781 24.609375 -13.035156 24.609375 -15.390625 Z M 24.609375 -15.390625 "/></g></g></g><g fill="#000000" fill-opacity="1"><g transform="translate(157.555811, 211.500265)"><g/></g></g><g fill="#000000" fill-opacity="1"><g transform="translate(165.501581, 211.500265)"><g/></g></g><g fill="#ffffff" fill-opacity="1"><g transform="translate(173.458154, 211.500265)"><g><path d="M 17.4375 0.390625 C 14.601562 0.390625 12.0625 -0.0664062 9.8125 -0.984375 C 7.570312 -1.910156 5.78125 -3.273438 4.4375 -5.078125 C 3.09375 -6.878906 2.382812 -9.050781 2.3125 -11.59375 L 12.359375 -11.59375 C 12.503906 -10.15625 13 -9.054688 13.84375 -8.296875 C 14.695312 -7.546875 15.800781 -7.171875 17.15625 -7.171875 C 18.5625 -7.171875 19.664062 -7.492188 20.46875 -8.140625 C 21.28125 -8.785156 21.6875 -9.675781 21.6875 -10.8125 C 21.6875 -11.769531 21.363281 -12.5625 20.71875 -13.1875 C 20.070312 -13.8125 19.28125 -14.328125 18.34375 -14.734375 C 17.40625 -15.140625 16.070312 -15.597656 14.34375 -16.109375 C 11.84375 -16.890625 9.800781 -17.664062 8.21875 -18.4375 C 6.632812 -19.207031 5.269531 -20.34375 4.125 -21.84375 C 2.988281 -23.351562 2.421875 -25.328125 2.421875 -27.765625 C 2.421875 -31.367188 3.726562 -34.191406 6.34375 -36.234375 C 8.957031 -38.273438 12.363281 -39.296875 16.5625 -39.296875 C 20.820312 -39.296875 24.257812 -38.273438 26.875 -36.234375 C 29.488281 -34.191406 30.890625 -31.347656 31.078125 -27.703125 L 20.859375 -27.703125 C 20.785156 -28.953125 20.328125 -29.9375 19.484375 -30.65625 C 18.640625 -31.375 17.550781 -31.734375 16.21875 -31.734375 C 15.082031 -31.734375 14.164062 -31.425781 13.46875 -30.8125 C 12.769531 -30.207031 12.421875 -29.335938 12.421875 -28.203125 C 12.421875 -26.953125 13.007812 -25.976562 14.1875 -25.28125 C 15.363281 -24.582031 17.203125 -23.828125 19.703125 -23.015625 C 22.203125 -22.171875 24.234375 -21.359375 25.796875 -20.578125 C 27.359375 -19.804688 28.707031 -18.6875 29.84375 -17.21875 C 30.988281 -15.75 31.5625 -13.851562 31.5625 -11.53125 C 31.5625 -9.320312 31 -7.316406 29.875 -5.515625 C 28.757812 -3.710938 27.132812 -2.273438 25 -1.203125 C 22.863281 -0.140625 20.34375 0.390625 17.4375 0.390625 Z M 17.4375 0.390625 "/></g></g></g><g fill="#ffffff" fill-opacity="1"><g transform="translate(203.642917, 211.500265)"><g><path d="M 1.546875 -15.34375 C 1.546875 -18.394531 2.179688 -21.113281 3.453125 -23.5 C 4.722656 -25.894531 6.429688 -27.765625 8.578125 -29.109375 C 10.734375 -30.453125 13.082031 -31.125 15.625 -31.125 C 17.570312 -31.125 19.316406 -30.78125 20.859375 -30.09375 C 22.398438 -29.414062 23.648438 -28.472656 24.609375 -27.265625 L 24.609375 -30.796875 L 34.046875 -30.796875 L 34.046875 14.6875 L 24.609375 14.6875 L 24.609375 -3.859375 C 23.546875 -2.578125 22.25 -1.546875 20.71875 -0.765625 C 19.195312 0.00390625 17.457031 0.390625 15.5 0.390625 C 13 0.390625 10.679688 -0.269531 8.546875 -1.59375 C 6.421875 -2.925781 4.722656 -4.785156 3.453125 -7.171875 C 2.179688 -9.566406 1.546875 -12.289062 1.546875 -15.34375 Z M 24.609375 -15.390625 C 24.609375 -17.046875 24.285156 -18.4375 23.640625 -19.5625 C 23.003906 -20.6875 22.171875 -21.53125 21.140625 -22.09375 C 20.109375 -22.664062 19.019531 -22.953125 17.875 -22.953125 C 16.769531 -22.953125 15.703125 -22.664062 14.671875 -22.09375 C 13.648438 -21.53125 12.804688 -20.675781 12.140625 -19.53125 C 11.472656 -18.394531 11.140625 -17 11.140625 -15.34375 C 11.140625 -13.6875 11.472656 -12.296875 12.140625 -11.171875 C 12.804688 -10.054688 13.648438 -9.210938 14.671875 -8.640625 C 15.703125 -8.066406 16.769531 -7.78125 17.875 -7.78125 C 18.976562 -7.78125 20.054688 -8.066406 21.109375 -8.640625 C 22.160156 -9.210938 23.003906 -10.066406 23.640625 -11.203125 C 24.285156 -12.335938 24.609375 -13.734375 24.609375 -15.390625 Z M 24.609375 -15.390625 "/></g></g></g><g fill="#ffffff" fill-opacity="1"><g transform="translate(237.359429, 211.500265)"><g><path d="M 33.828125 -30.796875 L 33.828125 0 L 24.390625 0 L 24.390625 -4.1875 C 23.429688 -2.832031 22.132812 -1.738281 20.5 -0.90625 C 18.863281 -0.0820312 17.050781 0.328125 15.0625 0.328125 C 12.707031 0.328125 10.628906 -0.191406 8.828125 -1.234375 C 7.023438 -2.285156 5.625 -3.804688 4.625 -5.796875 C 3.632812 -7.785156 3.140625 -10.117188 3.140625 -12.796875 L 3.140625 -30.796875 L 12.53125 -30.796875 L 12.53125 -14.078125 C 12.53125 -12.015625 13.0625 -10.410156 14.125 -9.265625 C 15.195312 -8.128906 16.632812 -7.5625 18.4375 -7.5625 C 20.269531 -7.5625 21.71875 -8.128906 22.78125 -9.265625 C 23.851562 -10.410156 24.390625 -12.015625 24.390625 -14.078125 L 24.390625 -30.796875 Z M 33.828125 -30.796875 "/></g></g></g><g fill="#ffffff" fill-opacity="1"><g transform="translate(270.800024, 211.500265)"><g><path d="M 1.546875 -15.453125 C 1.546875 -18.617188 2.140625 -21.394531 3.328125 -23.78125 C 4.523438 -26.175781 6.15625 -28.015625 8.21875 -29.296875 C 10.28125 -30.585938 12.582031 -31.234375 15.125 -31.234375 C 17.289062 -31.234375 19.191406 -30.789062 20.828125 -29.90625 C 22.472656 -29.03125 23.734375 -27.875 24.609375 -26.4375 L 24.609375 -30.796875 L 34.046875 -30.796875 L 34.046875 0 L 24.609375 0 L 24.609375 -4.359375 C 23.691406 -2.921875 22.414062 -1.757812 20.78125 -0.875 C 19.144531 0 17.238281 0.4375 15.0625 0.4375 C 12.5625 0.4375 10.28125 -0.210938 8.21875 -1.515625 C 6.15625 -2.828125 4.523438 -4.6875 3.328125 -7.09375 C 2.140625 -9.5 1.546875 -12.285156 1.546875 -15.453125 Z M 24.609375 -15.390625 C 24.609375 -17.742188 23.953125 -19.601562 22.640625 -20.96875 C 21.335938 -22.332031 19.75 -23.015625 17.875 -23.015625 C 16 -23.015625 14.40625 -22.34375 13.09375 -21 C 11.789062 -19.65625 11.140625 -17.804688 11.140625 -15.453125 C 11.140625 -13.097656 11.789062 -11.226562 13.09375 -9.84375 C 14.40625 -8.46875 16 -7.78125 17.875 -7.78125 C 19.75 -7.78125 21.335938 -8.457031 22.640625 -9.8125 C 23.953125 -11.175781 24.609375 -13.035156 24.609375 -15.390625 Z M 24.609375 -15.390625 "/></g></g></g><g fill="#ffffff" fill-opacity="1"><g transform="translate(304.516537, 211.500265)"><g><path d="M 1.546875 -15.453125 C 1.546875 -18.617188 2.140625 -21.394531 3.328125 -23.78125 C 4.523438 -26.175781 6.15625 -28.015625 8.21875 -29.296875 C 10.28125 -30.585938 12.582031 -31.234375 15.125 -31.234375 C 17.144531 -31.234375 18.988281 -30.8125 20.65625 -29.96875 C 22.332031 -29.125 23.648438 -27.984375 24.609375 -26.546875 L 24.609375 -40.84375 L 34.046875 -40.84375 L 34.046875 0 L 24.609375 0 L 24.609375 -4.421875 C 23.734375 -2.941406 22.472656 -1.757812 20.828125 -0.875 C 19.191406 0 17.289062 0.4375 15.125 0.4375 C 12.582031 0.4375 10.28125 -0.210938 8.21875 -1.515625 C 6.15625 -2.828125 4.523438 -4.6875 3.328125 -7.09375 C 2.140625 -9.5 1.546875 -12.285156 1.546875 -15.453125 Z M 24.609375 -15.390625 C 24.609375 -17.742188 23.953125 -19.601562 22.640625 -20.96875 C 21.335938 -22.332031 19.75 -23.015625 17.875 -23.015625 C 16 -23.015625 14.40625 -22.34375 13.09375 -21 C 11.789062 -19.65625 11.140625 -17.804688 11.140625 -15.453125 C 11.140625 -13.097656 11.789062 -11.226562 13.09375 -9.84375 C 14.40625 -8.46875 16 -7.78125 17.875 -7.78125 C 19.75 -7.78125 21.335938 -8.457031 22.640625 -9.8125 C 23.953125 -11.175781 24.609375 -13.035156 24.609375 -15.390625 Z M 24.609375 -15.390625 "/></g></g></g><g fill="#ffffff" fill-opacity="1"><g transform="translate(338.23549, 211.500265)"><g/></g></g><g clip-path="url(#a4d1112479)"><g transform="matrix(1, 0, 0, 1, 162, 187)"><g clip-path="url(#8c0943ab36)"><g clip-path="url(#4440f1e8eb)"><path fill="#ffffff" d="M 0.96875 0.316406 L 10.214844 0.316406 L 10.214844 9.671875 L 0.96875 9.671875 Z M 0.96875 0.316406 " fill-opacity="1" fill-rule="nonzero"/></g></g></g></g></svg>