<svg xmlns="http://www.w3.org/2000/svg" xmlns:xlink="http://www.w3.org/1999/xlink" width="500" zoomAndPan="magnify" viewBox="0 0 375 374.999991" height="500" preserveAspectRatio="xMidYMid meet" version="1.0"><defs><g/><clipPath id="e8f8cb4abd"><path d="M 62.875 145.929688 L 125.125 145.929688 L 125.125 217.929688 L 62.875 217.929688 Z M 62.875 145.929688 " clip-rule="nonzero"/></clipPath><clipPath id="5ae219ff51"><path d="M 322.007812 203 L 326.742188 203 L 326.742188 207.738281 L 322.007812 207.738281 Z M 322.007812 203 " clip-rule="nonzero"/></clipPath><clipPath id="7ea8ad87aa"><path d="M 0.0078125 0 L 4.742188 0 L 4.742188 4.738281 L 0.0078125 4.738281 Z M 0.0078125 0 " clip-rule="nonzero"/></clipPath><linearGradient x1="0" gradientTransform="matrix(0.0184996, 0, 0, 0.0184996, 0.00744429, 0.000567723)" y1="128" x2="255.999996" gradientUnits="userSpaceOnUse" y2="128" id="746d64d10e"><stop stop-opacity="1" stop-color="rgb(100%, 100%, 100%)" offset="0"/><stop stop-opacity="1" stop-color="rgb(99.845886%, 99.845886%, 99.845886%)" offset="0.0078125"/><stop stop-opacity="1" stop-color="rgb(99.539185%, 99.539185%, 99.539185%)" offset="0.015625"/><stop stop-opacity="1" stop-color="rgb(99.232483%, 99.232483%, 99.232483%)" offset="0.0234375"/><stop stop-opacity="1" stop-color="rgb(98.925781%, 98.925781%, 98.925781%)" offset="0.03125"/><stop stop-opacity="1" stop-color="rgb(98.61908%, 98.61908%, 98.61908%)" offset="0.0390625"/><stop stop-opacity="1" stop-color="rgb(98.313904%, 98.313904%, 98.313904%)" offset="0.046875"/><stop stop-opacity="1" stop-color="rgb(98.007202%, 98.007202%, 98.007202%)" offset="0.0546875"/><stop stop-opacity="1" stop-color="rgb(97.7005%, 97.7005%, 97.7005%)" offset="0.0625"/><stop stop-opacity="1" stop-color="rgb(97.393799%, 97.393799%, 97.393799%)" offset="0.0703125"/><stop stop-opacity="1" stop-color="rgb(97.087097%, 97.087097%, 97.087097%)" offset="0.078125"/><stop stop-opacity="1" stop-color="rgb(96.781921%, 96.781921%, 96.781921%)" offset="0.0859375"/><stop stop-opacity="1" stop-color="rgb(96.47522%, 96.47522%, 96.47522%)" offset="0.09375"/><stop stop-opacity="1" stop-color="rgb(96.168518%, 96.168518%, 96.168518%)" offset="0.101562"/><stop stop-opacity="1" stop-color="rgb(95.861816%, 95.861816%, 95.861816%)" offset="0.109375"/><stop stop-opacity="1" stop-color="rgb(95.555115%, 95.555115%, 95.555115%)" offset="0.117188"/><stop stop-opacity="1" stop-color="rgb(95.249939%, 95.249939%, 95.249939%)" offset="0.125"/><stop stop-opacity="1" stop-color="rgb(94.943237%, 94.943237%, 94.943237%)" offset="0.132812"/><stop stop-opacity="1" stop-color="rgb(94.636536%, 94.636536%, 94.636536%)" offset="0.140625"/><stop stop-opacity="1" stop-color="rgb(94.329834%, 94.329834%, 94.329834%)" offset="0.148438"/><stop stop-opacity="1" stop-color="rgb(94.023132%, 94.023132%, 94.023132%)" offset="0.15625"/><stop stop-opacity="1" stop-color="rgb(93.717957%, 93.717957%, 93.717957%)" offset="0.164062"/><stop stop-opacity="1" stop-color="rgb(93.411255%, 93.411255%, 93.411255%)" offset="0.171875"/><stop stop-opacity="1" stop-color="rgb(93.104553%, 93.104553%, 93.104553%)" offset="0.179688"/><stop stop-opacity="1" stop-color="rgb(92.797852%, 92.797852%, 92.797852%)" offset="0.1875"/><stop stop-opacity="1" stop-color="rgb(92.49115%, 92.49115%, 92.49115%)" offset="0.195312"/><stop stop-opacity="1" stop-color="rgb(92.185974%, 92.185974%, 92.185974%)" offset="0.203125"/><stop stop-opacity="1" stop-color="rgb(91.879272%, 91.879272%, 91.879272%)" offset="0.210938"/><stop stop-opacity="1" stop-color="rgb(91.572571%, 91.572571%, 91.572571%)" offset="0.21875"/><stop stop-opacity="1" stop-color="rgb(91.265869%, 91.265869%, 91.265869%)" offset="0.226562"/><stop stop-opacity="1" stop-color="rgb(90.959167%, 90.959167%, 90.959167%)" offset="0.234375"/><stop stop-opacity="1" stop-color="rgb(90.653992%, 90.653992%, 90.653992%)" offset="0.242188"/><stop stop-opacity="1" stop-color="rgb(90.34729%, 90.34729%, 90.34729%)" offset="0.25"/><stop stop-opacity="1" stop-color="rgb(90.040588%, 90.040588%, 90.040588%)" offset="0.257812"/><stop stop-opacity="1" stop-color="rgb(89.733887%, 89.733887%, 89.733887%)" offset="0.265625"/><stop stop-opacity="1" stop-color="rgb(89.427185%, 89.427185%, 89.427185%)" offset="0.273438"/><stop stop-opacity="1" stop-color="rgb(89.120483%, 89.120483%, 89.120483%)" offset="0.28125"/><stop stop-opacity="1" stop-color="rgb(88.815308%, 88.815308%, 88.815308%)" offset="0.289062"/><stop stop-opacity="1" stop-color="rgb(88.508606%, 88.508606%, 88.508606%)" offset="0.296875"/><stop stop-opacity="1" stop-color="rgb(88.201904%, 88.201904%, 88.201904%)" offset="0.304688"/><stop stop-opacity="1" stop-color="rgb(87.895203%, 87.895203%, 87.895203%)" offset="0.3125"/><stop stop-opacity="1" stop-color="rgb(87.588501%, 87.588501%, 87.588501%)" offset="0.320312"/><stop stop-opacity="1" stop-color="rgb(87.283325%, 87.283325%, 87.283325%)" offset="0.328125"/><stop stop-opacity="1" stop-color="rgb(86.976624%, 86.976624%, 86.976624%)" offset="0.335938"/><stop stop-opacity="1" stop-color="rgb(86.669922%, 86.669922%, 86.669922%)" offset="0.34375"/><stop stop-opacity="1" stop-color="rgb(86.36322%, 86.36322%, 86.36322%)" offset="0.351562"/><stop stop-opacity="1" stop-color="rgb(86.056519%, 86.056519%, 86.056519%)" offset="0.359375"/><stop stop-opacity="1" stop-color="rgb(85.751343%, 85.751343%, 85.751343%)" offset="0.367188"/><stop stop-opacity="1" stop-color="rgb(85.444641%, 85.444641%, 85.444641%)" offset="0.375"/><stop stop-opacity="1" stop-color="rgb(85.137939%, 85.137939%, 85.137939%)" offset="0.382812"/><stop stop-opacity="1" stop-color="rgb(84.831238%, 84.831238%, 84.831238%)" offset="0.390625"/><stop stop-opacity="1" stop-color="rgb(84.524536%, 84.524536%, 84.524536%)" offset="0.398438"/><stop stop-opacity="1" stop-color="rgb(84.21936%, 84.21936%, 84.21936%)" offset="0.40625"/><stop stop-opacity="1" stop-color="rgb(83.912659%, 83.912659%, 83.912659%)" offset="0.414062"/><stop stop-opacity="1" stop-color="rgb(83.605957%, 83.605957%, 83.605957%)" offset="0.421875"/><stop stop-opacity="1" stop-color="rgb(83.299255%, 83.299255%, 83.299255%)" offset="0.429688"/><stop stop-opacity="1" stop-color="rgb(82.992554%, 82.992554%, 82.992554%)" offset="0.4375"/><stop stop-opacity="1" stop-color="rgb(82.687378%, 82.687378%, 82.687378%)" offset="0.445312"/><stop stop-opacity="1" stop-color="rgb(82.380676%, 82.380676%, 82.380676%)" offset="0.453125"/><stop stop-opacity="1" stop-color="rgb(82.073975%, 82.073975%, 82.073975%)" offset="0.460938"/><stop stop-opacity="1" stop-color="rgb(81.767273%, 81.767273%, 81.767273%)" offset="0.46875"/><stop stop-opacity="1" stop-color="rgb(81.460571%, 81.460571%, 81.460571%)" offset="0.476562"/><stop stop-opacity="1" stop-color="rgb(81.155396%, 81.155396%, 81.155396%)" offset="0.484375"/><stop stop-opacity="1" stop-color="rgb(80.848694%, 80.848694%, 80.848694%)" offset="0.492188"/><stop stop-opacity="1" stop-color="rgb(80.541992%, 80.541992%, 80.541992%)" offset="0.5"/><stop stop-opacity="1" stop-color="rgb(80.235291%, 80.235291%, 80.235291%)" offset="0.507812"/><stop stop-opacity="1" stop-color="rgb(79.928589%, 79.928589%, 79.928589%)" offset="0.515625"/><stop stop-opacity="1" stop-color="rgb(79.621887%, 79.621887%, 79.621887%)" offset="0.523438"/><stop stop-opacity="1" stop-color="rgb(79.316711%, 79.316711%, 79.316711%)" offset="0.53125"/><stop stop-opacity="1" stop-color="rgb(79.01001%, 79.01001%, 79.01001%)" offset="0.539062"/><stop stop-opacity="1" stop-color="rgb(78.703308%, 78.703308%, 78.703308%)" offset="0.546875"/><stop stop-opacity="1" stop-color="rgb(78.396606%, 78.396606%, 78.396606%)" offset="0.554688"/><stop stop-opacity="1" stop-color="rgb(78.089905%, 78.089905%, 78.089905%)" offset="0.5625"/><stop stop-opacity="1" stop-color="rgb(77.784729%, 77.784729%, 77.784729%)" offset="0.570312"/><stop stop-opacity="1" stop-color="rgb(77.478027%, 77.478027%, 77.478027%)" offset="0.578125"/><stop stop-opacity="1" stop-color="rgb(77.171326%, 77.171326%, 77.171326%)" offset="0.585938"/><stop stop-opacity="1" stop-color="rgb(76.864624%, 76.864624%, 76.864624%)" offset="0.59375"/><stop stop-opacity="1" stop-color="rgb(76.557922%, 76.557922%, 76.557922%)" offset="0.601562"/><stop stop-opacity="1" stop-color="rgb(76.252747%, 76.252747%, 76.252747%)" offset="0.609375"/><stop stop-opacity="1" stop-color="rgb(75.946045%, 75.946045%, 75.946045%)" offset="0.617188"/><stop stop-opacity="1" stop-color="rgb(75.639343%, 75.639343%, 75.639343%)" offset="0.625"/><stop stop-opacity="1" stop-color="rgb(75.332642%, 75.332642%, 75.332642%)" offset="0.632812"/><stop stop-opacity="1" stop-color="rgb(75.02594%, 75.02594%, 75.02594%)" offset="0.640625"/><stop stop-opacity="1" stop-color="rgb(74.720764%, 74.720764%, 74.720764%)" offset="0.648438"/><stop stop-opacity="1" stop-color="rgb(74.414062%, 74.414062%, 74.414062%)" offset="0.65625"/><stop stop-opacity="1" stop-color="rgb(74.107361%, 74.107361%, 74.107361%)" offset="0.664062"/><stop stop-opacity="1" stop-color="rgb(73.800659%, 73.800659%, 73.800659%)" offset="0.671875"/><stop stop-opacity="1" stop-color="rgb(73.493958%, 73.493958%, 73.493958%)" offset="0.679688"/><stop stop-opacity="1" stop-color="rgb(73.188782%, 73.188782%, 73.188782%)" offset="0.6875"/><stop stop-opacity="1" stop-color="rgb(72.88208%, 72.88208%, 72.88208%)" offset="0.695312"/><stop stop-opacity="1" stop-color="rgb(72.575378%, 72.575378%, 72.575378%)" offset="0.703125"/><stop stop-opacity="1" stop-color="rgb(72.268677%, 72.268677%, 72.268677%)" offset="0.710938"/><stop stop-opacity="1" stop-color="rgb(71.961975%, 71.961975%, 71.961975%)" offset="0.71875"/><stop stop-opacity="1" stop-color="rgb(71.656799%, 71.656799%, 71.656799%)" offset="0.726562"/><stop stop-opacity="1" stop-color="rgb(71.350098%, 71.350098%, 71.350098%)" offset="0.734375"/><stop stop-opacity="1" stop-color="rgb(71.043396%, 71.043396%, 71.043396%)" offset="0.742188"/><stop stop-opacity="1" stop-color="rgb(70.736694%, 70.736694%, 70.736694%)" offset="0.75"/><stop stop-opacity="1" stop-color="rgb(70.429993%, 70.429993%, 70.429993%)" offset="0.757812"/><stop stop-opacity="1" stop-color="rgb(70.123291%, 70.123291%, 70.123291%)" offset="0.765625"/><stop stop-opacity="1" stop-color="rgb(69.818115%, 69.818115%, 69.818115%)" offset="0.773438"/><stop stop-opacity="1" stop-color="rgb(69.511414%, 69.511414%, 69.511414%)" offset="0.78125"/><stop stop-opacity="1" stop-color="rgb(69.204712%, 69.204712%, 69.204712%)" offset="0.789062"/><stop stop-opacity="1" stop-color="rgb(68.89801%, 68.89801%, 68.89801%)" offset="0.796875"/><stop stop-opacity="1" stop-color="rgb(68.591309%, 68.591309%, 68.591309%)" offset="0.804688"/><stop stop-opacity="1" stop-color="rgb(68.286133%, 68.286133%, 68.286133%)" offset="0.8125"/><stop stop-opacity="1" stop-color="rgb(67.979431%, 67.979431%, 67.979431%)" offset="0.820312"/><stop stop-opacity="1" stop-color="rgb(67.672729%, 67.672729%, 67.672729%)" offset="0.828125"/><stop stop-opacity="1" stop-color="rgb(67.366028%, 67.366028%, 67.366028%)" offset="0.835938"/><stop stop-opacity="1" stop-color="rgb(67.059326%, 67.059326%, 67.059326%)" offset="0.84375"/><stop stop-opacity="1" stop-color="rgb(66.75415%, 66.75415%, 66.75415%)" offset="0.851562"/><stop stop-opacity="1" stop-color="rgb(66.447449%, 66.447449%, 66.447449%)" offset="0.859375"/><stop stop-opacity="1" stop-color="rgb(66.140747%, 66.140747%, 66.140747%)" offset="0.867188"/><stop stop-opacity="1" stop-color="rgb(65.834045%, 65.834045%, 65.834045%)" offset="0.875"/><stop stop-opacity="1" stop-color="rgb(65.527344%, 65.527344%, 65.527344%)" offset="0.882812"/><stop stop-opacity="1" stop-color="rgb(65.222168%, 65.222168%, 65.222168%)" offset="0.890625"/><stop stop-opacity="1" stop-color="rgb(64.915466%, 64.915466%, 64.915466%)" offset="0.898438"/><stop stop-opacity="1" stop-color="rgb(64.608765%, 64.608765%, 64.608765%)" offset="0.90625"/><stop stop-opacity="1" stop-color="rgb(64.302063%, 64.302063%, 64.302063%)" offset="0.914062"/><stop stop-opacity="1" stop-color="rgb(63.995361%, 63.995361%, 63.995361%)" offset="0.921875"/><stop stop-opacity="1" stop-color="rgb(63.690186%, 63.690186%, 63.690186%)" offset="0.929688"/><stop stop-opacity="1" stop-color="rgb(63.383484%, 63.383484%, 63.383484%)" offset="0.9375"/><stop stop-opacity="1" stop-color="rgb(63.076782%, 63.076782%, 63.076782%)" offset="0.945312"/><stop stop-opacity="1" stop-color="rgb(62.770081%, 62.770081%, 62.770081%)" offset="0.953125"/><stop stop-opacity="1" stop-color="rgb(62.463379%, 62.463379%, 62.463379%)" offset="0.960938"/><stop stop-opacity="1" stop-color="rgb(62.158203%, 62.158203%, 62.158203%)" offset="0.96875"/><stop stop-opacity="1" stop-color="rgb(61.851501%, 61.851501%, 61.851501%)" offset="0.976562"/><stop stop-opacity="1" stop-color="rgb(61.5448%, 61.5448%, 61.5448%)" offset="0.984375"/><stop stop-opacity="1" stop-color="rgb(61.238098%, 61.238098%, 61.238098%)" offset="0.992188"/><stop stop-opacity="1" stop-color="rgb(60.931396%, 60.931396%, 60.931396%)" offset="1"/></linearGradient><clipPath id="81938cf173"><rect x="0" width="5" y="0" height="5"/></clipPath></defs><g clip-path="url(#e8f8cb4abd)"><path fill="#c82aef" d="M 92.347656 184.4375 L 75.886719 184.4375 L 75.886719 203.371094 L 63.023438 218.199219 L 62.882812 218.199219 L 62.882812 171.601562 L 75.886719 184.4375 L 75.886719 171.601562 L 103.5 171.601562 Z M 125.015625 146.859375 L 114.507812 158.933594 L 62.882812 158.933594 L 62.882812 145.929688 L 125.015625 145.929688 Z M 125.015625 146.859375 " fill-opacity="1" fill-rule="nonzero"/></g><g fill="#000000" fill-opacity="1"><g transform="translate(106.756118, 198.951798)"><g><path d="M 33.53125 -24.421875 C 36.53125 -24.421875 38.914062 -23.507812 40.6875 -21.6875 C 42.46875 -19.875 43.359375 -17.351562 43.359375 -14.125 L 43.359375 0 L 36 0 L 36 -13.125 C 36 -14.6875 35.585938 -15.890625 34.765625 -16.734375 C 33.941406 -17.585938 32.804688 -18.015625 31.359375 -18.015625 C 29.910156 -18.015625 28.773438 -17.585938 27.953125 -16.734375 C 27.128906 -15.890625 26.71875 -14.6875 26.71875 -13.125 L 26.71875 0 L 19.359375 0 L 19.359375 -13.125 C 19.359375 -14.6875 18.945312 -15.890625 18.125 -16.734375 C 17.300781 -17.585938 16.164062 -18.015625 14.71875 -18.015625 C 13.28125 -18.015625 12.148438 -17.585938 11.328125 -16.734375 C 10.503906 -15.890625 10.09375 -14.6875 10.09375 -13.125 L 10.09375 0 L 2.6875 0 L 2.6875 -24.171875 L 10.09375 -24.171875 L 10.09375 -21.140625 C 10.84375 -22.148438 11.820312 -22.945312 13.03125 -23.53125 C 14.25 -24.125 15.625 -24.421875 17.15625 -24.421875 C 18.96875 -24.421875 20.585938 -24.03125 22.015625 -23.25 C 23.453125 -22.476562 24.570312 -21.367188 25.375 -19.921875 C 26.21875 -21.253906 27.359375 -22.335938 28.796875 -23.171875 C 30.242188 -24.003906 31.820312 -24.421875 33.53125 -24.421875 Z M 33.53125 -24.421875 "/></g></g></g><g fill="#000000" fill-opacity="1"><g transform="translate(149.666985, 198.951798)"><g><path d="M 1.21875 -12.125 C 1.21875 -14.613281 1.6875 -16.796875 2.625 -18.671875 C 3.5625 -20.546875 4.835938 -21.988281 6.453125 -23 C 8.066406 -24.007812 9.875 -24.515625 11.875 -24.515625 C 13.570312 -24.515625 15.0625 -24.164062 16.34375 -23.46875 C 17.632812 -22.78125 18.625 -21.875 19.3125 -20.75 L 19.3125 -24.171875 L 26.71875 -24.171875 L 26.71875 0 L 19.3125 0 L 19.3125 -3.421875 C 18.59375 -2.296875 17.585938 -1.382812 16.296875 -0.6875 C 15.015625 0 13.523438 0.34375 11.828125 0.34375 C 9.859375 0.34375 8.066406 -0.164062 6.453125 -1.1875 C 4.835938 -2.21875 3.5625 -3.675781 2.625 -5.5625 C 1.6875 -7.457031 1.21875 -9.644531 1.21875 -12.125 Z M 19.3125 -12.078125 C 19.3125 -13.929688 18.800781 -15.390625 17.78125 -16.453125 C 16.757812 -17.523438 15.507812 -18.0625 14.03125 -18.0625 C 12.5625 -18.0625 11.3125 -17.535156 10.28125 -16.484375 C 9.257812 -15.429688 8.75 -13.976562 8.75 -12.125 C 8.75 -10.28125 9.257812 -8.816406 10.28125 -7.734375 C 11.3125 -6.648438 12.5625 -6.109375 14.03125 -6.109375 C 15.507812 -6.109375 16.757812 -6.640625 17.78125 -7.703125 C 18.800781 -8.773438 19.3125 -10.234375 19.3125 -12.078125 Z M 19.3125 -12.078125 "/></g></g></g><g fill="#000000" fill-opacity="1"><g transform="translate(176.123527, 198.951798)"><g><path d="M 10.09375 -20.140625 C 10.957031 -21.460938 12.039062 -22.503906 13.34375 -23.265625 C 14.644531 -24.035156 16.085938 -24.421875 17.671875 -24.421875 L 17.671875 -16.59375 L 15.640625 -16.59375 C 13.785156 -16.59375 12.394531 -16.191406 11.46875 -15.390625 C 10.550781 -14.597656 10.09375 -13.207031 10.09375 -11.21875 L 10.09375 0 L 2.6875 0 L 2.6875 -24.171875 L 10.09375 -24.171875 Z M 10.09375 -20.140625 "/></g></g></g><g fill="#000000" fill-opacity="1"><g transform="translate(191.711546, 198.951798)"><g><path d="M 17.453125 0 L 10.09375 -10.140625 L 10.09375 0 L 2.6875 0 L 2.6875 -32.046875 L 10.09375 -32.046875 L 10.09375 -14.34375 L 17.40625 -24.171875 L 26.546875 -24.171875 L 16.5 -12.046875 L 26.640625 0 Z M 17.453125 0 "/></g></g></g><g fill="#000000" fill-opacity="1"><g transform="translate(215.526734, 198.951798)"><g><path d="M 25.46875 -12.46875 C 25.46875 -11.78125 25.425781 -11.0625 25.34375 -10.3125 L 8.578125 -10.3125 C 8.691406 -8.8125 9.171875 -7.660156 10.015625 -6.859375 C 10.867188 -6.066406 11.921875 -5.671875 13.171875 -5.671875 C 15.015625 -5.671875 16.296875 -6.453125 17.015625 -8.015625 L 24.90625 -8.015625 C 24.5 -6.421875 23.769531 -4.988281 22.71875 -3.71875 C 21.664062 -2.445312 20.34375 -1.453125 18.75 -0.734375 C 17.164062 -0.015625 15.390625 0.34375 13.421875 0.34375 C 11.054688 0.34375 8.945312 -0.160156 7.09375 -1.171875 C 5.25 -2.179688 3.804688 -3.625 2.765625 -5.5 C 1.734375 -7.375 1.21875 -9.566406 1.21875 -12.078125 C 1.21875 -14.597656 1.726562 -16.796875 2.75 -18.671875 C 3.769531 -20.546875 5.203125 -21.988281 7.046875 -23 C 8.898438 -24.007812 11.023438 -24.515625 13.421875 -24.515625 C 15.765625 -24.515625 17.84375 -24.019531 19.65625 -23.03125 C 21.476562 -22.050781 22.898438 -20.648438 23.921875 -18.828125 C 24.953125 -17.015625 25.46875 -14.894531 25.46875 -12.46875 Z M 17.890625 -14.421875 C 17.890625 -15.691406 17.457031 -16.703125 16.59375 -17.453125 C 15.726562 -18.203125 14.644531 -18.578125 13.34375 -18.578125 C 12.101562 -18.578125 11.054688 -18.21875 10.203125 -17.5 C 9.347656 -16.78125 8.820312 -15.753906 8.625 -14.421875 Z M 17.890625 -14.421875 "/></g></g></g><g fill="#000000" fill-opacity="1"><g transform="translate(239.255325, 198.951798)"><g><path d="M 16.15625 -6.28125 L 16.15625 0 L 12.390625 0 C 9.703125 0 7.609375 -0.65625 6.109375 -1.96875 C 4.609375 -3.28125 3.859375 -5.425781 3.859375 -8.40625 L 3.859375 -18.015625 L 0.90625 -18.015625 L 0.90625 -24.171875 L 3.859375 -24.171875 L 3.859375 -30.0625 L 11.265625 -30.0625 L 11.265625 -24.171875 L 16.109375 -24.171875 L 16.109375 -18.015625 L 11.265625 -18.015625 L 11.265625 -8.3125 C 11.265625 -7.59375 11.4375 -7.070312 11.78125 -6.75 C 12.125 -6.4375 12.703125 -6.28125 13.515625 -6.28125 Z M 16.15625 -6.28125 "/></g></g></g><g fill="#000000" fill-opacity="1"><g transform="translate(253.890726, 198.951798)"><g><path d="M 6.40625 -26.6875 C 5.113281 -26.6875 4.054688 -27.066406 3.234375 -27.828125 C 2.410156 -28.585938 2 -29.535156 2 -30.671875 C 2 -31.816406 2.410156 -32.769531 3.234375 -33.53125 C 4.054688 -34.300781 5.113281 -34.6875 6.40625 -34.6875 C 7.675781 -34.6875 8.722656 -34.300781 9.546875 -33.53125 C 10.367188 -32.769531 10.78125 -31.816406 10.78125 -30.671875 C 10.78125 -29.535156 10.367188 -28.585938 9.546875 -27.828125 C 8.722656 -27.066406 7.675781 -26.6875 6.40625 -26.6875 Z M 10.09375 -24.171875 L 10.09375 0 L 2.6875 0 L 2.6875 -24.171875 Z M 10.09375 -24.171875 "/></g></g></g><g fill="#000000" fill-opacity="1"><g transform="translate(263.719736, 198.951798)"><g><path d="M 17.40625 -24.421875 C 20.238281 -24.421875 22.5 -23.503906 24.1875 -21.671875 C 25.875 -19.835938 26.71875 -17.320312 26.71875 -14.125 L 26.71875 0 L 19.359375 0 L 19.359375 -13.125 C 19.359375 -14.738281 18.9375 -15.992188 18.09375 -16.890625 C 17.257812 -17.785156 16.132812 -18.234375 14.71875 -18.234375 C 13.3125 -18.234375 12.1875 -17.785156 11.34375 -16.890625 C 10.507812 -15.992188 10.09375 -14.738281 10.09375 -13.125 L 10.09375 0 L 2.6875 0 L 2.6875 -24.171875 L 10.09375 -24.171875 L 10.09375 -20.96875 C 10.84375 -22.03125 11.851562 -22.867188 13.125 -23.484375 C 14.394531 -24.109375 15.820312 -24.421875 17.40625 -24.421875 Z M 17.40625 -24.421875 "/></g></g></g><g fill="#000000" fill-opacity="1"><g transform="translate(289.959766, 198.951798)"><g><path d="M 11.875 -24.515625 C 13.570312 -24.515625 15.0625 -24.164062 16.34375 -23.46875 C 17.632812 -22.78125 18.625 -21.875 19.3125 -20.75 L 19.3125 -24.171875 L 26.71875 -24.171875 L 26.71875 -0.046875 C 26.71875 2.179688 26.273438 4.195312 25.390625 6 C 24.515625 7.800781 23.175781 9.234375 21.375 10.296875 C 19.570312 11.367188 17.328125 11.90625 14.640625 11.90625 C 11.054688 11.90625 8.148438 11.0625 5.921875 9.375 C 3.703125 7.6875 2.4375 5.398438 2.125 2.515625 L 9.4375 2.515625 C 9.664062 3.429688 10.210938 4.15625 11.078125 4.6875 C 11.953125 5.226562 13.023438 5.5 14.296875 5.5 C 15.828125 5.5 17.046875 5.054688 17.953125 4.171875 C 18.859375 3.296875 19.3125 1.890625 19.3125 -0.046875 L 19.3125 -3.46875 C 18.59375 -2.34375 17.597656 -1.425781 16.328125 -0.71875 C 15.054688 -0.0078125 13.570312 0.34375 11.875 0.34375 C 9.875 0.34375 8.066406 -0.164062 6.453125 -1.1875 C 4.835938 -2.21875 3.5625 -3.675781 2.625 -5.5625 C 1.6875 -7.457031 1.21875 -9.644531 1.21875 -12.125 C 1.21875 -14.613281 1.6875 -16.796875 2.625 -18.671875 C 3.5625 -20.546875 4.835938 -21.988281 6.453125 -23 C 8.066406 -24.007812 9.875 -24.515625 11.875 -24.515625 Z M 19.3125 -12.078125 C 19.3125 -13.929688 18.800781 -15.390625 17.78125 -16.453125 C 16.757812 -17.523438 15.507812 -18.0625 14.03125 -18.0625 C 12.5625 -18.0625 11.3125 -17.535156 10.28125 -16.484375 C 9.257812 -15.429688 8.75 -13.976562 8.75 -12.125 C 8.75 -10.28125 9.257812 -8.816406 10.28125 -7.734375 C 11.3125 -6.648438 12.5625 -6.109375 14.03125 -6.109375 C 15.507812 -6.109375 16.757812 -6.640625 17.78125 -7.703125 C 18.800781 -8.773438 19.3125 -10.234375 19.3125 -12.078125 Z M 19.3125 -12.078125 "/></g></g></g><g clip-path="url(#5ae219ff51)"><g transform="matrix(1, 0, 0, 1, 322, 203)"><g clip-path="url(#81938cf173)"><g clip-path="url(#7ea8ad87aa)"><path fill="url(#746d64d10e)" d="M 0.0078125 0 L 0.0078125 4.738281 L 4.742188 4.738281 L 4.742188 0 Z M 0.0078125 0 " fill-rule="nonzero"/></g></g></g></g><g fill="#000000" fill-opacity="1"><g transform="translate(110.158363, 215.453321)"><g><path d="M 0.4375 -2.765625 C 0.4375 -3.316406 0.546875 -3.804688 0.765625 -4.234375 C 0.992188 -4.660156 1.304688 -4.988281 1.703125 -5.21875 C 2.097656 -5.445312 2.546875 -5.5625 3.046875 -5.5625 C 3.472656 -5.5625 3.867188 -5.460938 4.234375 -5.265625 C 4.597656 -5.078125 4.875 -4.820312 5.0625 -4.5 L 5.0625 -7.40625 L 5.984375 -7.40625 L 5.984375 0 L 5.0625 0 L 5.0625 -1.03125 C 4.882812 -0.707031 4.617188 -0.4375 4.265625 -0.21875 C 3.910156 -0.0078125 3.5 0.09375 3.03125 0.09375 C 2.539062 0.09375 2.097656 -0.0234375 1.703125 -0.265625 C 1.304688 -0.503906 0.992188 -0.84375 0.765625 -1.28125 C 0.546875 -1.71875 0.4375 -2.210938 0.4375 -2.765625 Z M 5.0625 -2.75 C 5.0625 -3.164062 4.976562 -3.523438 4.8125 -3.828125 C 4.644531 -4.140625 4.421875 -4.375 4.140625 -4.53125 C 3.859375 -4.695312 3.546875 -4.78125 3.203125 -4.78125 C 2.867188 -4.78125 2.5625 -4.695312 2.28125 -4.53125 C 2 -4.375 1.773438 -4.140625 1.609375 -3.828125 C 1.441406 -3.523438 1.359375 -3.171875 1.359375 -2.765625 C 1.359375 -2.335938 1.441406 -1.96875 1.609375 -1.65625 C 1.773438 -1.351562 2 -1.117188 2.28125 -0.953125 C 2.5625 -0.785156 2.867188 -0.703125 3.203125 -0.703125 C 3.546875 -0.703125 3.859375 -0.785156 4.140625 -0.953125 C 4.421875 -1.117188 4.644531 -1.351562 4.8125 -1.65625 C 4.976562 -1.96875 5.0625 -2.332031 5.0625 -2.75 Z M 5.0625 -2.75 "/></g></g></g><g fill="#000000" fill-opacity="1"><g transform="translate(116.845706, 215.453321)"><g><path d="M 1.234375 -6.375 C 1.066406 -6.375 0.921875 -6.429688 0.796875 -6.546875 C 0.679688 -6.671875 0.625 -6.816406 0.625 -6.984375 C 0.625 -7.160156 0.679688 -7.304688 0.796875 -7.421875 C 0.921875 -7.546875 1.066406 -7.609375 1.234375 -7.609375 C 1.398438 -7.609375 1.539062 -7.546875 1.65625 -7.421875 C 1.78125 -7.304688 1.84375 -7.160156 1.84375 -6.984375 C 1.84375 -6.816406 1.78125 -6.671875 1.65625 -6.546875 C 1.539062 -6.429688 1.398438 -6.375 1.234375 -6.375 Z M 1.6875 -5.484375 L 1.6875 0 L 0.765625 0 L 0.765625 -5.484375 Z M 1.6875 -5.484375 "/></g></g></g><g fill="#000000" fill-opacity="1"><g transform="translate(119.23474, 215.453321)"><g><path d="M 3.03125 -5.5625 C 3.5 -5.5625 3.910156 -5.457031 4.265625 -5.25 C 4.628906 -5.050781 4.894531 -4.796875 5.0625 -4.484375 L 5.0625 -5.484375 L 5.984375 -5.484375 L 5.984375 0.125 C 5.984375 0.625 5.875 1.066406 5.65625 1.453125 C 5.445312 1.847656 5.144531 2.15625 4.75 2.375 C 4.351562 2.59375 3.894531 2.703125 3.375 2.703125 C 2.65625 2.703125 2.050781 2.53125 1.5625 2.1875 C 1.082031 1.851562 0.800781 1.390625 0.71875 0.796875 L 1.625 0.796875 C 1.71875 1.128906 1.921875 1.394531 2.234375 1.59375 C 2.546875 1.800781 2.925781 1.90625 3.375 1.90625 C 3.875 1.90625 4.28125 1.75 4.59375 1.4375 C 4.90625 1.125 5.0625 0.6875 5.0625 0.125 L 5.0625 -1.03125 C 4.882812 -0.707031 4.617188 -0.4375 4.265625 -0.21875 C 3.910156 -0.0078125 3.5 0.09375 3.03125 0.09375 C 2.539062 0.09375 2.097656 -0.0234375 1.703125 -0.265625 C 1.304688 -0.503906 0.992188 -0.84375 0.765625 -1.28125 C 0.546875 -1.71875 0.4375 -2.210938 0.4375 -2.765625 C 0.4375 -3.316406 0.546875 -3.804688 0.765625 -4.234375 C 0.992188 -4.660156 1.304688 -4.988281 1.703125 -5.21875 C 2.097656 -5.445312 2.539062 -5.5625 3.03125 -5.5625 Z M 5.0625 -2.75 C 5.0625 -3.164062 4.976562 -3.523438 4.8125 -3.828125 C 4.644531 -4.140625 4.421875 -4.375 4.140625 -4.53125 C 3.859375 -4.695312 3.546875 -4.78125 3.203125 -4.78125 C 2.867188 -4.78125 2.5625 -4.695312 2.28125 -4.53125 C 2 -4.375 1.773438 -4.140625 1.609375 -3.828125 C 1.441406 -3.523438 1.359375 -3.171875 1.359375 -2.765625 C 1.359375 -2.335938 1.441406 -1.96875 1.609375 -1.65625 C 1.773438 -1.351562 2 -1.117188 2.28125 -0.953125 C 2.5625 -0.785156 2.867188 -0.703125 3.203125 -0.703125 C 3.546875 -0.703125 3.859375 -0.785156 4.140625 -0.953125 C 4.421875 -1.117188 4.644531 -1.351562 4.8125 -1.65625 C 4.976562 -1.96875 5.0625 -2.332031 5.0625 -2.75 Z M 5.0625 -2.75 "/></g></g></g><g fill="#000000" fill-opacity="1"><g transform="translate(125.922083, 215.453321)"><g><path d="M 1.234375 -6.375 C 1.066406 -6.375 0.921875 -6.429688 0.796875 -6.546875 C 0.679688 -6.671875 0.625 -6.816406 0.625 -6.984375 C 0.625 -7.160156 0.679688 -7.304688 0.796875 -7.421875 C 0.921875 -7.546875 1.066406 -7.609375 1.234375 -7.609375 C 1.398438 -7.609375 1.539062 -7.546875 1.65625 -7.421875 C 1.78125 -7.304688 1.84375 -7.160156 1.84375 -6.984375 C 1.84375 -6.816406 1.78125 -6.671875 1.65625 -6.546875 C 1.539062 -6.429688 1.398438 -6.375 1.234375 -6.375 Z M 1.6875 -5.484375 L 1.6875 0 L 0.765625 0 L 0.765625 -5.484375 Z M 1.6875 -5.484375 "/></g></g></g><g fill="#000000" fill-opacity="1"><g transform="translate(128.311117, 215.453321)"><g><path d="M 1.875 -4.734375 L 1.875 -1.5 C 1.875 -1.226562 1.929688 -1.035156 2.046875 -0.921875 C 2.160156 -0.816406 2.359375 -0.765625 2.640625 -0.765625 L 3.3125 -0.765625 L 3.3125 0 L 2.484375 0 C 1.984375 0 1.601562 -0.113281 1.34375 -0.34375 C 1.09375 -0.582031 0.96875 -0.96875 0.96875 -1.5 L 0.96875 -4.734375 L 0.265625 -4.734375 L 0.265625 -5.484375 L 0.96875 -5.484375 L 0.96875 -6.859375 L 1.875 -6.859375 L 1.875 -5.484375 L 3.3125 -5.484375 L 3.3125 -4.734375 Z M 1.875 -4.734375 "/></g></g></g><g fill="#000000" fill-opacity="1"><g transform="translate(131.879694, 215.453321)"><g><path d="M 0.4375 -2.765625 C 0.4375 -3.316406 0.546875 -3.804688 0.765625 -4.234375 C 0.992188 -4.660156 1.304688 -4.988281 1.703125 -5.21875 C 2.097656 -5.445312 2.539062 -5.5625 3.03125 -5.5625 C 3.507812 -5.5625 3.925781 -5.457031 4.28125 -5.25 C 4.632812 -5.050781 4.894531 -4.796875 5.0625 -4.484375 L 5.0625 -5.484375 L 5.984375 -5.484375 L 5.984375 0 L 5.0625 0 L 5.0625 -1.015625 C 4.882812 -0.703125 4.617188 -0.4375 4.265625 -0.21875 C 3.910156 -0.0078125 3.492188 0.09375 3.015625 0.09375 C 2.535156 0.09375 2.097656 -0.0234375 1.703125 -0.265625 C 1.304688 -0.503906 0.992188 -0.84375 0.765625 -1.28125 C 0.546875 -1.71875 0.4375 -2.210938 0.4375 -2.765625 Z M 5.0625 -2.75 C 5.0625 -3.164062 4.976562 -3.523438 4.8125 -3.828125 C 4.644531 -4.140625 4.421875 -4.375 4.140625 -4.53125 C 3.859375 -4.695312 3.546875 -4.78125 3.203125 -4.78125 C 2.867188 -4.78125 2.5625 -4.695312 2.28125 -4.53125 C 2 -4.375 1.773438 -4.140625 1.609375 -3.828125 C 1.441406 -3.523438 1.359375 -3.171875 1.359375 -2.765625 C 1.359375 -2.335938 1.441406 -1.96875 1.609375 -1.65625 C 1.773438 -1.351562 2 -1.117188 2.28125 -0.953125 C 2.5625 -0.785156 2.867188 -0.703125 3.203125 -0.703125 C 3.546875 -0.703125 3.859375 -0.785156 4.140625 -0.953125 C 4.421875 -1.117188 4.644531 -1.351562 4.8125 -1.65625 C 4.976562 -1.96875 5.0625 -2.332031 5.0625 -2.75 Z M 5.0625 -2.75 "/></g></g></g><g fill="#000000" fill-opacity="1"><g transform="translate(138.567037, 215.453321)"><g><path d="M 1.6875 -7.40625 L 1.6875 0 L 0.765625 0 L 0.765625 -7.40625 Z M 1.6875 -7.40625 "/></g></g></g><g fill="#000000" fill-opacity="1"><g transform="translate(140.956071, 215.453321)"><g/></g></g><g fill="#000000" fill-opacity="1"><g transform="translate(143.555024, 215.453321)"><g><path d="M 7.359375 -5.578125 C 7.785156 -5.578125 8.164062 -5.488281 8.5 -5.3125 C 8.832031 -5.132812 9.09375 -4.867188 9.28125 -4.515625 C 9.476562 -4.160156 9.578125 -3.734375 9.578125 -3.234375 L 9.578125 0 L 8.6875 0 L 8.6875 -3.09375 C 8.6875 -3.644531 8.550781 -4.066406 8.28125 -4.359375 C 8.007812 -4.648438 7.644531 -4.796875 7.1875 -4.796875 C 6.707031 -4.796875 6.328125 -4.640625 6.046875 -4.328125 C 5.765625 -4.023438 5.625 -3.585938 5.625 -3.015625 L 5.625 0 L 4.734375 0 L 4.734375 -3.09375 C 4.734375 -3.644531 4.597656 -4.066406 4.328125 -4.359375 C 4.054688 -4.648438 3.691406 -4.796875 3.234375 -4.796875 C 2.753906 -4.796875 2.375 -4.640625 2.09375 -4.328125 C 1.820312 -4.023438 1.6875 -3.585938 1.6875 -3.015625 L 1.6875 0 L 0.765625 0 L 0.765625 -5.484375 L 1.6875 -5.484375 L 1.6875 -4.6875 C 1.863281 -4.976562 2.101562 -5.195312 2.40625 -5.34375 C 2.707031 -5.5 3.039062 -5.578125 3.40625 -5.578125 C 3.863281 -5.578125 4.269531 -5.472656 4.625 -5.265625 C 4.976562 -5.054688 5.242188 -4.753906 5.421875 -4.359375 C 5.578125 -4.742188 5.828125 -5.039062 6.171875 -5.25 C 6.523438 -5.46875 6.921875 -5.578125 7.359375 -5.578125 Z M 7.359375 -5.578125 "/></g></g></g><g fill="#000000" fill-opacity="1"><g transform="translate(153.780972, 215.453321)"><g><path d="M 0.4375 -2.765625 C 0.4375 -3.316406 0.546875 -3.804688 0.765625 -4.234375 C 0.992188 -4.660156 1.304688 -4.988281 1.703125 -5.21875 C 2.097656 -5.445312 2.539062 -5.5625 3.03125 -5.5625 C 3.507812 -5.5625 3.925781 -5.457031 4.28125 -5.25 C 4.632812 -5.050781 4.894531 -4.796875 5.0625 -4.484375 L 5.0625 -5.484375 L 5.984375 -5.484375 L 5.984375 0 L 5.0625 0 L 5.0625 -1.015625 C 4.882812 -0.703125 4.617188 -0.4375 4.265625 -0.21875 C 3.910156 -0.0078125 3.492188 0.09375 3.015625 0.09375 C 2.535156 0.09375 2.097656 -0.0234375 1.703125 -0.265625 C 1.304688 -0.503906 0.992188 -0.84375 0.765625 -1.28125 C 0.546875 -1.71875 0.4375 -2.210938 0.4375 -2.765625 Z M 5.0625 -2.75 C 5.0625 -3.164062 4.976562 -3.523438 4.8125 -3.828125 C 4.644531 -4.140625 4.421875 -4.375 4.140625 -4.53125 C 3.859375 -4.695312 3.546875 -4.78125 3.203125 -4.78125 C 2.867188 -4.78125 2.5625 -4.695312 2.28125 -4.53125 C 2 -4.375 1.773438 -4.140625 1.609375 -3.828125 C 1.441406 -3.523438 1.359375 -3.171875 1.359375 -2.765625 C 1.359375 -2.335938 1.441406 -1.96875 1.609375 -1.65625 C 1.773438 -1.351562 2 -1.117188 2.28125 -0.953125 C 2.5625 -0.785156 2.867188 -0.703125 3.203125 -0.703125 C 3.546875 -0.703125 3.859375 -0.785156 4.140625 -0.953125 C 4.421875 -1.117188 4.644531 -1.351562 4.8125 -1.65625 C 4.976562 -1.96875 5.0625 -2.332031 5.0625 -2.75 Z M 5.0625 -2.75 "/></g></g></g><g fill="#000000" fill-opacity="1"><g transform="translate(160.468315, 215.453321)"><g><path d="M 1.6875 -4.59375 C 1.84375 -4.90625 2.066406 -5.144531 2.359375 -5.3125 C 2.660156 -5.488281 3.023438 -5.578125 3.453125 -5.578125 L 3.453125 -4.640625 L 3.203125 -4.640625 C 2.191406 -4.640625 1.6875 -4.085938 1.6875 -2.984375 L 1.6875 0 L 0.765625 0 L 0.765625 -5.484375 L 1.6875 -5.484375 Z M 1.6875 -4.59375 "/></g></g></g><g fill="#000000" fill-opacity="1"><g transform="translate(164.126854, 215.453321)"><g><path d="M 3.828125 0 L 1.6875 -2.421875 L 1.6875 0 L 0.765625 0 L 0.765625 -7.40625 L 1.6875 -7.40625 L 1.6875 -3.046875 L 3.796875 -5.484375 L 5.0625 -5.484375 L 2.484375 -2.75 L 5.0625 0 Z M 3.828125 0 "/></g></g></g><g fill="#000000" fill-opacity="1"><g transform="translate(169.204826, 215.453321)"><g><path d="M 5.765625 -2.953125 C 5.765625 -2.773438 5.753906 -2.59375 5.734375 -2.40625 L 1.359375 -2.40625 C 1.390625 -1.863281 1.570312 -1.441406 1.90625 -1.140625 C 2.25 -0.835938 2.660156 -0.6875 3.140625 -0.6875 C 3.535156 -0.6875 3.863281 -0.773438 4.125 -0.953125 C 4.382812 -1.140625 4.570312 -1.382812 4.6875 -1.6875 L 5.65625 -1.6875 C 5.507812 -1.164062 5.21875 -0.738281 4.78125 -0.40625 C 4.34375 -0.0703125 3.796875 0.09375 3.140625 0.09375 C 2.617188 0.09375 2.148438 -0.0195312 1.734375 -0.25 C 1.328125 -0.488281 1.007812 -0.820312 0.78125 -1.25 C 0.550781 -1.6875 0.4375 -2.1875 0.4375 -2.75 C 0.4375 -3.3125 0.546875 -3.804688 0.765625 -4.234375 C 0.992188 -4.660156 1.3125 -4.988281 1.71875 -5.21875 C 2.132812 -5.445312 2.609375 -5.5625 3.140625 -5.5625 C 3.660156 -5.5625 4.117188 -5.445312 4.515625 -5.21875 C 4.921875 -5 5.226562 -4.691406 5.4375 -4.296875 C 5.65625 -3.898438 5.765625 -3.453125 5.765625 -2.953125 Z M 4.828125 -3.140625 C 4.828125 -3.484375 4.75 -3.78125 4.59375 -4.03125 C 4.445312 -4.28125 4.238281 -4.46875 3.96875 -4.59375 C 3.707031 -4.726562 3.414062 -4.796875 3.09375 -4.796875 C 2.632812 -4.796875 2.242188 -4.648438 1.921875 -4.359375 C 1.597656 -4.066406 1.414062 -3.660156 1.375 -3.140625 Z M 4.828125 -3.140625 "/></g></g></g><g fill="#000000" fill-opacity="1"><g transform="translate(175.332393, 215.453321)"><g><path d="M 1.875 -4.734375 L 1.875 -1.5 C 1.875 -1.226562 1.929688 -1.035156 2.046875 -0.921875 C 2.160156 -0.816406 2.359375 -0.765625 2.640625 -0.765625 L 3.3125 -0.765625 L 3.3125 0 L 2.484375 0 C 1.984375 0 1.601562 -0.113281 1.34375 -0.34375 C 1.09375 -0.582031 0.96875 -0.96875 0.96875 -1.5 L 0.96875 -4.734375 L 0.265625 -4.734375 L 0.265625 -5.484375 L 0.96875 -5.484375 L 0.96875 -6.859375 L 1.875 -6.859375 L 1.875 -5.484375 L 3.3125 -5.484375 L 3.3125 -4.734375 Z M 1.875 -4.734375 "/></g></g></g><g fill="#000000" fill-opacity="1"><g transform="translate(178.900969, 215.453321)"><g><path d="M 1.234375 -6.375 C 1.066406 -6.375 0.921875 -6.429688 0.796875 -6.546875 C 0.679688 -6.671875 0.625 -6.816406 0.625 -6.984375 C 0.625 -7.160156 0.679688 -7.304688 0.796875 -7.421875 C 0.921875 -7.546875 1.066406 -7.609375 1.234375 -7.609375 C 1.398438 -7.609375 1.539062 -7.546875 1.65625 -7.421875 C 1.78125 -7.304688 1.84375 -7.160156 1.84375 -6.984375 C 1.84375 -6.816406 1.78125 -6.671875 1.65625 -6.546875 C 1.539062 -6.429688 1.398438 -6.375 1.234375 -6.375 Z M 1.6875 -5.484375 L 1.6875 0 L 0.765625 0 L 0.765625 -5.484375 Z M 1.6875 -5.484375 "/></g></g></g><g fill="#000000" fill-opacity="1"><g transform="translate(181.290003, 215.453321)"><g><path d="M 3.4375 -5.578125 C 4.101562 -5.578125 4.644531 -5.375 5.0625 -4.96875 C 5.476562 -4.570312 5.6875 -3.992188 5.6875 -3.234375 L 5.6875 0 L 4.78125 0 L 4.78125 -3.09375 C 4.78125 -3.644531 4.640625 -4.066406 4.359375 -4.359375 C 4.085938 -4.648438 3.71875 -4.796875 3.25 -4.796875 C 2.769531 -4.796875 2.390625 -4.644531 2.109375 -4.34375 C 1.828125 -4.039062 1.6875 -3.601562 1.6875 -3.03125 L 1.6875 0 L 0.765625 0 L 0.765625 -5.484375 L 1.6875 -5.484375 L 1.6875 -4.703125 C 1.863281 -4.984375 2.101562 -5.195312 2.40625 -5.34375 C 2.71875 -5.5 3.0625 -5.578125 3.4375 -5.578125 Z M 3.4375 -5.578125 "/></g></g></g><g fill="#000000" fill-opacity="1"><g transform="translate(187.617487, 215.453321)"><g><path d="M 3.03125 -5.5625 C 3.5 -5.5625 3.910156 -5.457031 4.265625 -5.25 C 4.628906 -5.050781 4.894531 -4.796875 5.0625 -4.484375 L 5.0625 -5.484375 L 5.984375 -5.484375 L 5.984375 0.125 C 5.984375 0.625 5.875 1.066406 5.65625 1.453125 C 5.445312 1.847656 5.144531 2.15625 4.75 2.375 C 4.351562 2.59375 3.894531 2.703125 3.375 2.703125 C 2.65625 2.703125 2.050781 2.53125 1.5625 2.1875 C 1.082031 1.851562 0.800781 1.390625 0.71875 0.796875 L 1.625 0.796875 C 1.71875 1.128906 1.921875 1.394531 2.234375 1.59375 C 2.546875 1.800781 2.925781 1.90625 3.375 1.90625 C 3.875 1.90625 4.28125 1.75 4.59375 1.4375 C 4.90625 1.125 5.0625 0.6875 5.0625 0.125 L 5.0625 -1.03125 C 4.882812 -0.707031 4.617188 -0.4375 4.265625 -0.21875 C 3.910156 -0.0078125 3.5 0.09375 3.03125 0.09375 C 2.539062 0.09375 2.097656 -0.0234375 1.703125 -0.265625 C 1.304688 -0.503906 0.992188 -0.84375 0.765625 -1.28125 C 0.546875 -1.71875 0.4375 -2.210938 0.4375 -2.765625 C 0.4375 -3.316406 0.546875 -3.804688 0.765625 -4.234375 C 0.992188 -4.660156 1.304688 -4.988281 1.703125 -5.21875 C 2.097656 -5.445312 2.539062 -5.5625 3.03125 -5.5625 Z M 5.0625 -2.75 C 5.0625 -3.164062 4.976562 -3.523438 4.8125 -3.828125 C 4.644531 -4.140625 4.421875 -4.375 4.140625 -4.53125 C 3.859375 -4.695312 3.546875 -4.78125 3.203125 -4.78125 C 2.867188 -4.78125 2.5625 -4.695312 2.28125 -4.53125 C 2 -4.375 1.773438 -4.140625 1.609375 -3.828125 C 1.441406 -3.523438 1.359375 -3.171875 1.359375 -2.765625 C 1.359375 -2.335938 1.441406 -1.96875 1.609375 -1.65625 C 1.773438 -1.351562 2 -1.117188 2.28125 -0.953125 C 2.5625 -0.785156 2.867188 -0.703125 3.203125 -0.703125 C 3.546875 -0.703125 3.859375 -0.785156 4.140625 -0.953125 C 4.421875 -1.117188 4.644531 -1.351562 4.8125 -1.65625 C 4.976562 -1.96875 5.0625 -2.332031 5.0625 -2.75 Z M 5.0625 -2.75 "/></g></g></g><g fill="#000000" fill-opacity="1"><g transform="translate(194.30483, 215.453321)"><g/></g></g><g fill="#000000" fill-opacity="1"><g transform="translate(196.903783, 215.453321)"><g><path d="M 0.4375 -2.765625 C 0.4375 -3.316406 0.546875 -3.804688 0.765625 -4.234375 C 0.992188 -4.660156 1.304688 -4.988281 1.703125 -5.21875 C 2.097656 -5.445312 2.539062 -5.5625 3.03125 -5.5625 C 3.507812 -5.5625 3.925781 -5.457031 4.28125 -5.25 C 4.632812 -5.050781 4.894531 -4.796875 5.0625 -4.484375 L 5.0625 -5.484375 L 5.984375 -5.484375 L 5.984375 0 L 5.0625 0 L 5.0625 -1.015625 C 4.882812 -0.703125 4.617188 -0.4375 4.265625 -0.21875 C 3.910156 -0.0078125 3.492188 0.09375 3.015625 0.09375 C 2.535156 0.09375 2.097656 -0.0234375 1.703125 -0.265625 C 1.304688 -0.503906 0.992188 -0.84375 0.765625 -1.28125 C 0.546875 -1.71875 0.4375 -2.210938 0.4375 -2.765625 Z M 5.0625 -2.75 C 5.0625 -3.164062 4.976562 -3.523438 4.8125 -3.828125 C 4.644531 -4.140625 4.421875 -4.375 4.140625 -4.53125 C 3.859375 -4.695312 3.546875 -4.78125 3.203125 -4.78125 C 2.867188 -4.78125 2.5625 -4.695312 2.28125 -4.53125 C 2 -4.375 1.773438 -4.140625 1.609375 -3.828125 C 1.441406 -3.523438 1.359375 -3.171875 1.359375 -2.765625 C 1.359375 -2.335938 1.441406 -1.96875 1.609375 -1.65625 C 1.773438 -1.351562 2 -1.117188 2.28125 -0.953125 C 2.5625 -0.785156 2.867188 -0.703125 3.203125 -0.703125 C 3.546875 -0.703125 3.859375 -0.785156 4.140625 -0.953125 C 4.421875 -1.117188 4.644531 -1.351562 4.8125 -1.65625 C 4.976562 -1.96875 5.0625 -2.332031 5.0625 -2.75 Z M 5.0625 -2.75 "/></g></g></g><g fill="#000000" fill-opacity="1"><g transform="translate(203.591126, 215.453321)"><g><path d="M 3.03125 -5.5625 C 3.5 -5.5625 3.910156 -5.457031 4.265625 -5.25 C 4.628906 -5.050781 4.894531 -4.796875 5.0625 -4.484375 L 5.0625 -5.484375 L 5.984375 -5.484375 L 5.984375 0.125 C 5.984375 0.625 5.875 1.066406 5.65625 1.453125 C 5.445312 1.847656 5.144531 2.15625 4.75 2.375 C 4.351562 2.59375 3.894531 2.703125 3.375 2.703125 C 2.65625 2.703125 2.050781 2.53125 1.5625 2.1875 C 1.082031 1.851562 0.800781 1.390625 0.71875 0.796875 L 1.625 0.796875 C 1.71875 1.128906 1.921875 1.394531 2.234375 1.59375 C 2.546875 1.800781 2.925781 1.90625 3.375 1.90625 C 3.875 1.90625 4.28125 1.75 4.59375 1.4375 C 4.90625 1.125 5.0625 0.6875 5.0625 0.125 L 5.0625 -1.03125 C 4.882812 -0.707031 4.617188 -0.4375 4.265625 -0.21875 C 3.910156 -0.0078125 3.5 0.09375 3.03125 0.09375 C 2.539062 0.09375 2.097656 -0.0234375 1.703125 -0.265625 C 1.304688 -0.503906 0.992188 -0.84375 0.765625 -1.28125 C 0.546875 -1.71875 0.4375 -2.210938 0.4375 -2.765625 C 0.4375 -3.316406 0.546875 -3.804688 0.765625 -4.234375 C 0.992188 -4.660156 1.304688 -4.988281 1.703125 -5.21875 C 2.097656 -5.445312 2.539062 -5.5625 3.03125 -5.5625 Z M 5.0625 -2.75 C 5.0625 -3.164062 4.976562 -3.523438 4.8125 -3.828125 C 4.644531 -4.140625 4.421875 -4.375 4.140625 -4.53125 C 3.859375 -4.695312 3.546875 -4.78125 3.203125 -4.78125 C 2.867188 -4.78125 2.5625 -4.695312 2.28125 -4.53125 C 2 -4.375 1.773438 -4.140625 1.609375 -3.828125 C 1.441406 -3.523438 1.359375 -3.171875 1.359375 -2.765625 C 1.359375 -2.335938 1.441406 -1.96875 1.609375 -1.65625 C 1.773438 -1.351562 2 -1.117188 2.28125 -0.953125 C 2.5625 -0.785156 2.867188 -0.703125 3.203125 -0.703125 C 3.546875 -0.703125 3.859375 -0.785156 4.140625 -0.953125 C 4.421875 -1.117188 4.644531 -1.351562 4.8125 -1.65625 C 4.976562 -1.96875 5.0625 -2.332031 5.0625 -2.75 Z M 5.0625 -2.75 "/></g></g></g><g fill="#000000" fill-opacity="1"><g transform="translate(210.278469, 215.453321)"><g><path d="M 5.765625 -2.953125 C 5.765625 -2.773438 5.753906 -2.59375 5.734375 -2.40625 L 1.359375 -2.40625 C 1.390625 -1.863281 1.570312 -1.441406 1.90625 -1.140625 C 2.25 -0.835938 2.660156 -0.6875 3.140625 -0.6875 C 3.535156 -0.6875 3.863281 -0.773438 4.125 -0.953125 C 4.382812 -1.140625 4.570312 -1.382812 4.6875 -1.6875 L 5.65625 -1.6875 C 5.507812 -1.164062 5.21875 -0.738281 4.78125 -0.40625 C 4.34375 -0.0703125 3.796875 0.09375 3.140625 0.09375 C 2.617188 0.09375 2.148438 -0.0195312 1.734375 -0.25 C 1.328125 -0.488281 1.007812 -0.820312 0.78125 -1.25 C 0.550781 -1.6875 0.4375 -2.1875 0.4375 -2.75 C 0.4375 -3.3125 0.546875 -3.804688 0.765625 -4.234375 C 0.992188 -4.660156 1.3125 -4.988281 1.71875 -5.21875 C 2.132812 -5.445312 2.609375 -5.5625 3.140625 -5.5625 C 3.660156 -5.5625 4.117188 -5.445312 4.515625 -5.21875 C 4.921875 -5 5.226562 -4.691406 5.4375 -4.296875 C 5.65625 -3.898438 5.765625 -3.453125 5.765625 -2.953125 Z M 4.828125 -3.140625 C 4.828125 -3.484375 4.75 -3.78125 4.59375 -4.03125 C 4.445312 -4.28125 4.238281 -4.46875 3.96875 -4.59375 C 3.707031 -4.726562 3.414062 -4.796875 3.09375 -4.796875 C 2.632812 -4.796875 2.242188 -4.648438 1.921875 -4.359375 C 1.597656 -4.066406 1.414062 -3.660156 1.375 -3.140625 Z M 4.828125 -3.140625 "/></g></g></g><g fill="#000000" fill-opacity="1"><g transform="translate(216.406036, 215.453321)"><g><path d="M 3.4375 -5.578125 C 4.101562 -5.578125 4.644531 -5.375 5.0625 -4.96875 C 5.476562 -4.570312 5.6875 -3.992188 5.6875 -3.234375 L 5.6875 0 L 4.78125 0 L 4.78125 -3.09375 C 4.78125 -3.644531 4.640625 -4.066406 4.359375 -4.359375 C 4.085938 -4.648438 3.71875 -4.796875 3.25 -4.796875 C 2.769531 -4.796875 2.390625 -4.644531 2.109375 -4.34375 C 1.828125 -4.039062 1.6875 -3.601562 1.6875 -3.03125 L 1.6875 0 L 0.765625 0 L 0.765625 -5.484375 L 1.6875 -5.484375 L 1.6875 -4.703125 C 1.863281 -4.984375 2.101562 -5.195312 2.40625 -5.34375 C 2.71875 -5.5 3.0625 -5.578125 3.4375 -5.578125 Z M 3.4375 -5.578125 "/></g></g></g><g fill="#000000" fill-opacity="1"><g transform="translate(222.73352, 215.453321)"><g><path d="M 0.4375 -2.75 C 0.4375 -3.3125 0.546875 -3.804688 0.765625 -4.234375 C 0.992188 -4.660156 1.304688 -4.988281 1.703125 -5.21875 C 2.109375 -5.445312 2.570312 -5.5625 3.09375 -5.5625 C 3.769531 -5.5625 4.328125 -5.398438 4.765625 -5.078125 C 5.203125 -4.753906 5.488281 -4.300781 5.625 -3.71875 L 4.65625 -3.71875 C 4.5625 -4.050781 4.378906 -4.3125 4.109375 -4.5 C 3.835938 -4.695312 3.5 -4.796875 3.09375 -4.796875 C 2.570312 -4.796875 2.148438 -4.617188 1.828125 -4.265625 C 1.515625 -3.910156 1.359375 -3.40625 1.359375 -2.75 C 1.359375 -2.09375 1.515625 -1.582031 1.828125 -1.21875 C 2.148438 -0.863281 2.570312 -0.6875 3.09375 -0.6875 C 3.5 -0.6875 3.832031 -0.773438 4.09375 -0.953125 C 4.363281 -1.140625 4.550781 -1.410156 4.65625 -1.765625 L 5.625 -1.765625 C 5.476562 -1.203125 5.1875 -0.75 4.75 -0.40625 C 4.3125 -0.0703125 3.757812 0.09375 3.09375 0.09375 C 2.570312 0.09375 2.109375 -0.0195312 1.703125 -0.25 C 1.304688 -0.488281 0.992188 -0.820312 0.765625 -1.25 C 0.546875 -1.675781 0.4375 -2.175781 0.4375 -2.75 Z M 0.4375 -2.75 "/></g></g></g><g fill="#000000" fill-opacity="1"><g transform="translate(228.731139, 215.453321)"><g><path d="M 5.484375 -5.484375 L 2.1875 2.578125 L 1.25 2.578125 L 2.328125 -0.0625 L 0.125 -5.484375 L 1.125 -5.484375 L 2.84375 -1.046875 L 4.546875 -5.484375 Z M 5.484375 -5.484375 "/></g></g></g></svg>